<svg fill="none" height="800" viewBox="0 0 2080 800" width="2080" xmlns="http://www.w3.org/2000/svg" xmlns:xlink="http://www.w3.org/1999/xlink"><filter id="a" color-interpolation-filters="sRGB" filterUnits="userSpaceOnUse" height="51.48" width="55.0971" x="1944.94" y="165.82"><feFlood flood-opacity="0" result="BackgroundImageFix"/><feBlend in="SourceGraphic" in2="BackgroundImageFix" mode="normal" result="shape"/><feGaussianBlur result="effect1_foregroundBlur_69_13204" stdDeviation="2.22157"/></filter><filter id="b" color-interpolation-filters="sRGB" filterUnits="userSpaceOnUse" height="80.3556" width="44.4345" x="1768.01" y="40.2237"><feFlood flood-opacity="0" result="BackgroundImageFix"/><feColorMatrix in="SourceAlpha" result="hardAlpha" type="matrix" values="0 0 0 0 0 0 0 0 0 0 0 0 0 0 0 0 0 0 127 0"/><feOffset dy="1.02064"/><feGaussianBlur stdDeviation="1.53096"/><feComposite in2="hardAlpha" operator="out"/><feColorMatrix type="matrix" values="0 0 0 0 0 0 0 0 0 0 0 0 0 0 0 0 0 0 0.1 0"/><feBlend in2="BackgroundImageFix" mode="normal" result="effect1_dropShadow_69_13204"/><feBlend in="SourceGraphic" in2="effect1_dropShadow_69_13204" mode="normal" result="shape"/></filter><filter id="c" color-interpolation-filters="sRGB" filterUnits="userSpaceOnUse" height="34.4596" width="37.1262" x="1775.07" y="35.4035"><feFlood flood-opacity="0" result="BackgroundImageFix"/><feBlend in="SourceGraphic" in2="BackgroundImageFix" mode="normal" result="shape"/><feGaussianBlur result="effect1_foregroundBlur_69_13204" stdDeviation="2.04128"/></filter><filter id="d" color-interpolation-filters="sRGB" filterUnits="userSpaceOnUse" height="80.8815" width="73.3958" x="1948.2" y="556.395"><feFlood flood-opacity="0" result="BackgroundImageFix"/><feBlend in="SourceGraphic" in2="BackgroundImageFix" mode="normal" result="shape"/><feColorMatrix in="SourceAlpha" result="hardAlpha" type="matrix" values="0 0 0 0 0 0 0 0 0 0 0 0 0 0 0 0 0 0 127 0"/><feOffset dy="1.12609"/><feGaussianBlur stdDeviation="2.25217"/><feComposite in2="hardAlpha" k2="-1" k3="1" operator="arithmetic"/><feColorMatrix type="matrix" values="0 0 0 0 1 0 0 0 0 1 0 0 0 0 1 0 0 0 0.2 0"/><feBlend in2="shape" mode="normal" result="effect1_innerShadow_69_13204"/></filter><filter id="e" color-interpolation-filters="sRGB" filterUnits="userSpaceOnUse" height="60.985" width="62.0465" x="1771.59" y="534.275"><feFlood flood-opacity="0" result="BackgroundImageFix"/><feBlend in="SourceGraphic" in2="BackgroundImageFix" mode="normal" result="shape"/><feGaussianBlur result="effect1_foregroundBlur_69_13204" stdDeviation="2.20968"/></filter><filter id="f" color-interpolation-filters="sRGB" filterUnits="userSpaceOnUse" height="59.8802" width="62.0374" x="1771.4" y="558.581"><feFlood flood-opacity="0" result="BackgroundImageFix"/><feBlend in="SourceGraphic" in2="BackgroundImageFix" mode="normal" result="shape"/><feGaussianBlur result="effect1_foregroundBlur_69_13204" stdDeviation="2.20968"/></filter><filter id="g" color-interpolation-filters="sRGB" filterUnits="userSpaceOnUse" height="32.225" width="31.7968" x="1590.67" y="441.945"><feFlood flood-opacity="0" result="BackgroundImageFix"/><feBlend in="SourceGraphic" in2="BackgroundImageFix" mode="normal" result="shape"/><feGaussianBlur result="effect1_foregroundBlur_69_13204" stdDeviation="2.10433"/></filter><filter id="h" color-interpolation-filters="sRGB" filterUnits="userSpaceOnUse" height="24.1863" width="18.3106" x="1598.35" y="450.331"><feFlood flood-opacity="0" result="BackgroundImageFix"/><feBlend in="SourceGraphic" in2="BackgroundImageFix" mode="normal" result="shape"/><feGaussianBlur result="effect1_foregroundBlur_69_13204" stdDeviation="1.05217"/></filter><filter id="i" color-interpolation-filters="sRGB" filterUnits="userSpaceOnUse" height="63.7815" width="59.7279" x="1387.15" y="293.102"><feFlood flood-opacity="0" result="BackgroundImageFix"/><feBlend in="SourceGraphic" in2="BackgroundImageFix" mode="normal" result="shape"/><feGaussianBlur result="effect1_foregroundBlur_69_13204" stdDeviation="2.75806"/></filter><filter id="j" color-interpolation-filters="sRGB" filterUnits="userSpaceOnUse" height="36.3837" width="16.4613" x="1396.31" y="304.15"><feFlood flood-opacity="0" result="BackgroundImageFix"/><feBlend in="SourceGraphic" in2="BackgroundImageFix" mode="normal" result="shape"/><feGaussianBlur result="effect1_foregroundBlur_69_13204" stdDeviation="2.20645"/></filter><filter id="k" color-interpolation-filters="sRGB" filterUnits="userSpaceOnUse" height="35.8421" width="16.2778" x="1422.05" y="289.959"><feFlood flood-opacity="0" result="BackgroundImageFix"/><feBlend in="SourceGraphic" in2="BackgroundImageFix" mode="normal" result="shape"/><feGaussianBlur result="effect1_foregroundBlur_69_13204" stdDeviation="2.20645"/></filter><filter id="l" color-interpolation-filters="sRGB" filterUnits="userSpaceOnUse" height="78.2872" width="54.7505" x="1166.8" y="133.477"><feFlood flood-opacity="0" result="BackgroundImageFix"/><feBlend in="SourceGraphic" in2="BackgroundImageFix" mode="normal" result="shape"/><feColorMatrix in="SourceAlpha" result="hardAlpha" type="matrix" values="0 0 0 0 0 0 0 0 0 0 0 0 0 0 0 0 0 0 127 0"/><feOffset dy="-4.41297"/><feGaussianBlur stdDeviation="2.20648"/><feComposite in2="hardAlpha" k2="-1" k3="1" operator="arithmetic"/><feColorMatrix type="matrix" values="0 0 0 0 0 0 0 0 0 0 0 0 0 0 0 0 0 0 0.07 0"/><feBlend in2="shape" mode="normal" result="effect1_innerShadow_69_13204"/></filter><filter id="m" color-interpolation-filters="sRGB" filterUnits="userSpaceOnUse" height="73.5325" width="52.4329" x="843.992" y="105.511"><feFlood flood-opacity="0" result="BackgroundImageFix"/><feColorMatrix in="SourceAlpha" result="hardAlpha" type="matrix" values="0 0 0 0 0 0 0 0 0 0 0 0 0 0 0 0 0 0 127 0"/><feOffset dy="3.47017"/><feGaussianBlur stdDeviation="1.73508"/><feComposite in2="hardAlpha" operator="out"/><feColorMatrix type="matrix" values="0 0 0 0 0 0 0 0 0 0 0 0 0 0 0 0 0 0 0.1 0"/><feBlend in2="BackgroundImageFix" mode="normal" result="effect1_dropShadow_69_13204"/><feBlend in="SourceGraphic" in2="effect1_dropShadow_69_13204" mode="normal" result="shape"/></filter><filter id="n" color-interpolation-filters="sRGB" filterUnits="userSpaceOnUse" height="12.6263" width="7.59601" x="1246.81" y="685.56"><feFlood flood-opacity="0" result="BackgroundImageFix"/><feBlend in="SourceGraphic" in2="BackgroundImageFix" mode="normal" result="shape"/><feColorMatrix in="SourceAlpha" result="hardAlpha" type="matrix" values="0 0 0 0 0 0 0 0 0 0 0 0 0 0 0 0 0 0 127 0"/><feOffset dy="2.33138"/><feGaussianBlur stdDeviation="1.16569"/><feComposite in2="hardAlpha" k2="-1" k3="1" operator="arithmetic"/><feColorMatrix type="matrix" values="0 0 0 0 0.0117647 0 0 0 0 0.305882 0 0 0 0 0.65098 0 0 0 0.5 0"/><feBlend in2="shape" mode="normal" result="effect1_innerShadow_69_13204"/></filter><filter id="o" color-interpolation-filters="sRGB" filterUnits="userSpaceOnUse" height="20.9455" width="22.6477" x="1239.97" y="672.573"><feFlood flood-opacity="0" result="BackgroundImageFix"/><feBlend in="SourceGraphic" in2="BackgroundImageFix" mode="normal" result="shape"/><feColorMatrix in="SourceAlpha" result="hardAlpha" type="matrix" values="0 0 0 0 0 0 0 0 0 0 0 0 0 0 0 0 0 0 127 0"/><feOffset dy="2.33138"/><feGaussianBlur stdDeviation="1.16569"/><feComposite in2="hardAlpha" k2="-1" k3="1" operator="arithmetic"/><feColorMatrix type="matrix" values="0 0 0 0 0.0117647 0 0 0 0 0.305882 0 0 0 0 0.65098 0 0 0 0.5 0"/><feBlend in2="shape" mode="normal" result="effect1_innerShadow_69_13204"/></filter><filter id="p" color-interpolation-filters="sRGB" filterUnits="userSpaceOnUse" height="34.3052" width="39.9105" x="1231.91" y="659.097"><feFlood flood-opacity="0" result="BackgroundImageFix"/><feBlend in="SourceGraphic" in2="BackgroundImageFix" mode="normal" result="shape"/><feColorMatrix in="SourceAlpha" result="hardAlpha" type="matrix" values="0 0 0 0 0 0 0 0 0 0 0 0 0 0 0 0 0 0 127 0"/><feOffset dy="2.33138"/><feGaussianBlur stdDeviation="1.16569"/><feComposite in2="hardAlpha" k2="-1" k3="1" operator="arithmetic"/><feColorMatrix type="matrix" values="0 0 0 0 0.0117647 0 0 0 0 0.305882 0 0 0 0 0.65098 0 0 0 0.5 0"/><feBlend in2="shape" mode="normal" result="effect1_innerShadow_69_13204"/></filter><filter id="q" color-interpolation-filters="sRGB" filterUnits="userSpaceOnUse" height="89.7625" width="54.019" x="1030.02" y="515.915"><feFlood flood-opacity="0" result="BackgroundImageFix"/><feBlend in="SourceGraphic" in2="BackgroundImageFix" mode="normal" result="shape"/><feColorMatrix in="SourceAlpha" result="hardAlpha" type="matrix" values="0 0 0 0 0 0 0 0 0 0 0 0 0 0 0 0 0 0 127 0"/><feOffset dy="3.06191"/><feGaussianBlur stdDeviation="2.55159"/><feComposite in2="hardAlpha" k2="-1" k3="1" operator="arithmetic"/><feColorMatrix type="matrix" values="0 0 0 0 0.980392 0 0 0 0 0.713726 0 0 0 0 0.843137 0 0 0 0.2 0"/><feBlend in2="shape" mode="normal" result="effect1_innerShadow_69_13204"/></filter><filter id="r" color-interpolation-filters="sRGB" filterUnits="userSpaceOnUse" height="80.7293" width="48.9066" x="1032.58" y="519.411"><feFlood flood-opacity="0" result="BackgroundImageFix"/><feBlend in="SourceGraphic" in2="BackgroundImageFix" mode="normal" result="shape"/><feColorMatrix in="SourceAlpha" result="hardAlpha" type="matrix" values="0 0 0 0 0 0 0 0 0 0 0 0 0 0 0 0 0 0 127 0"/><feOffset dy="1.02064"/><feGaussianBlur stdDeviation="2.04128"/><feComposite in2="hardAlpha" k2="-1" k3="1" operator="arithmetic"/><feColorMatrix type="matrix" values="0 0 0 0 0.4 0 0 0 0 0.796078 0 0 0 0 1 0 0 0 0.2 0"/><feBlend in2="shape" mode="normal" result="effect1_innerShadow_69_13204"/></filter><filter id="s" color-interpolation-filters="sRGB" filterUnits="userSpaceOnUse" height="51.5727" width="32.3318" x="1040.04" y="539.46"><feFlood flood-opacity="0" result="BackgroundImageFix"/><feBlend in="SourceGraphic" in2="BackgroundImageFix" mode="normal" result="shape"/><feGaussianBlur result="effect1_foregroundBlur_69_13204" stdDeviation="1.02064"/></filter><filter id="t" color-interpolation-filters="sRGB" filterUnits="userSpaceOnUse" height="52.0776" width="24.629" x="1040.04" y="540.412"><feFlood flood-opacity="0" result="BackgroundImageFix"/><feColorMatrix in="SourceAlpha" result="hardAlpha" type="matrix" values="0 0 0 0 0 0 0 0 0 0 0 0 0 0 0 0 0 0 127 0"/><feOffset dx="2.04128" dy="1.02064"/><feGaussianBlur stdDeviation="2.04128"/><feComposite in2="hardAlpha" operator="out"/><feColorMatrix type="matrix" values="0 0 0 0 0 0 0 0 0 0 0 0 0 0 0 0 0 0 0.05 0"/><feBlend in2="BackgroundImageFix" mode="normal" result="effect1_dropShadow_69_13204"/><feBlend in="SourceGraphic" in2="effect1_dropShadow_69_13204" mode="normal" result="shape"/></filter><filter id="u" color-interpolation-filters="sRGB" filterUnits="userSpaceOnUse" height="102.127" width="63.6392" x="810.425" y="350.488"><feFlood flood-opacity="0" result="BackgroundImageFix"/><feBlend in="SourceGraphic" in2="BackgroundImageFix" mode="normal" result="shape"/><feGaussianBlur result="effect1_foregroundBlur_69_13204" stdDeviation="1.31351"/></filter><filter id="v" color-interpolation-filters="sRGB" filterUnits="userSpaceOnUse" height="120.67" width="166.886" x="278.833" y="22.6559"><feFlood flood-opacity="0" result="BackgroundImageFix"/><feBlend in="SourceGraphic" in2="BackgroundImageFix" mode="normal" result="shape"/><feColorMatrix in="SourceAlpha" result="hardAlpha" type="matrix" values="0 0 0 0 0 0 0 0 0 0 0 0 0 0 0 0 0 0 127 0"/><feOffset dy="-9.83293"/><feGaussianBlur stdDeviation="4.91647"/><feComposite in2="hardAlpha" k2="-1" k3="1" operator="arithmetic"/><feColorMatrix type="matrix" values="0 0 0 0 0 0 0 0 0 0 0 0 0 0 0 0 0 0 0.07 0"/><feBlend in2="shape" mode="normal" result="effect1_innerShadow_69_13204"/></filter><filter id="w" color-interpolation-filters="sRGB" filterUnits="userSpaceOnUse" height="51.701" width="70.2175" x="110.835" y="88.8107"><feFlood flood-opacity="0" result="BackgroundImageFix"/><feBlend in="SourceGraphic" in2="BackgroundImageFix" mode="normal" result="shape"/><feGaussianBlur result="effect1_foregroundBlur_69_13204" stdDeviation="3.90288"/></filter><filter id="x" color-interpolation-filters="sRGB" filterUnits="userSpaceOnUse" height="31.8276" width="43.2419" x="126.15" y="114.922"><feFlood flood-opacity="0" result="BackgroundImageFix"/><feBlend in="SourceGraphic" in2="BackgroundImageFix" mode="normal" result="shape"/><feGaussianBlur result="effect1_foregroundBlur_69_13204" stdDeviation="1.95144"/></filter><filter id="y" color-interpolation-filters="sRGB" filterUnits="userSpaceOnUse" height="26.5841" width="159.852" x="192.641" y="144.097"><feFlood flood-opacity="0" result="BackgroundImageFix"/><feBlend in="SourceGraphic" in2="BackgroundImageFix" mode="normal" result="shape"/><feGaussianBlur result="effect1_foregroundBlur_69_13204" stdDeviation="4.04903"/></filter><filter id="z" color-interpolation-filters="sRGB" filterUnits="userSpaceOnUse" height="24.5064" width="159.159" x="207.909" y="189.803"><feFlood flood-opacity="0" result="BackgroundImageFix"/><feBlend in="SourceGraphic" in2="BackgroundImageFix" mode="normal" result="shape"/><feGaussianBlur result="effect1_foregroundBlur_69_13204" stdDeviation="4.04903"/></filter><filter id="A" color-interpolation-filters="sRGB" filterUnits="userSpaceOnUse" height="19.386" width="15.337" x="375.131" y="238.747"><feFlood flood-opacity="0" result="BackgroundImageFix"/><feBlend in="SourceGraphic" in2="BackgroundImageFix" mode="normal" result="shape"/><feColorMatrix in="SourceAlpha" result="hardAlpha" type="matrix" values="0 0 0 0 0 0 0 0 0 0 0 0 0 0 0 0 0 0 127 0"/><feOffset dy="4.04903"/><feGaussianBlur stdDeviation="2.02451"/><feComposite in2="hardAlpha" k2="-1" k3="1" operator="arithmetic"/><feColorMatrix type="matrix" values="0 0 0 0 0.0117647 0 0 0 0 0.305882 0 0 0 0 0.65098 0 0 0 0.5 0"/><feBlend in2="shape" mode="normal" result="effect1_innerShadow_69_13204"/></filter><filter id="B" color-interpolation-filters="sRGB" filterUnits="userSpaceOnUse" height="28.2587" width="43.871" x="364.75" y="219.123"><feFlood flood-opacity="0" result="BackgroundImageFix"/><feBlend in="SourceGraphic" in2="BackgroundImageFix" mode="normal" result="shape"/><feColorMatrix in="SourceAlpha" result="hardAlpha" type="matrix" values="0 0 0 0 0 0 0 0 0 0 0 0 0 0 0 0 0 0 127 0"/><feOffset dy="4.04903"/><feGaussianBlur stdDeviation="2.02451"/><feComposite in2="hardAlpha" k2="-1" k3="1" operator="arithmetic"/><feColorMatrix type="matrix" values="0 0 0 0 0.0117647 0 0 0 0 0.305882 0 0 0 0 0.65098 0 0 0 0.5 0"/><feBlend in2="shape" mode="normal" result="effect1_innerShadow_69_13204"/></filter><filter id="C" color-interpolation-filters="sRGB" filterUnits="userSpaceOnUse" height="42.7072" width="77.3386" x="351.218" y="199.28"><feFlood flood-opacity="0" result="BackgroundImageFix"/><feBlend in="SourceGraphic" in2="BackgroundImageFix" mode="normal" result="shape"/><feColorMatrix in="SourceAlpha" result="hardAlpha" type="matrix" values="0 0 0 0 0 0 0 0 0 0 0 0 0 0 0 0 0 0 127 0"/><feOffset dy="4.04903"/><feGaussianBlur stdDeviation="2.02451"/><feComposite in2="hardAlpha" k2="-1" k3="1" operator="arithmetic"/><feColorMatrix type="matrix" values="0 0 0 0 0.0117647 0 0 0 0 0.305882 0 0 0 0 0.65098 0 0 0 0.5 0"/><feBlend in2="shape" mode="normal" result="effect1_innerShadow_69_13204"/></filter><filter id="D" color-interpolation-filters="sRGB" filterUnits="userSpaceOnUse" height="88.0295" width="128.856" x="121.293" y="199.285"><feFlood flood-opacity="0" result="BackgroundImageFix"/><feBlend in="SourceGraphic" in2="BackgroundImageFix" mode="normal" result="shape"/><feGaussianBlur result="effect1_foregroundBlur_69_13204" stdDeviation="4.94454"/></filter><filter id="E" color-interpolation-filters="sRGB" filterUnits="userSpaceOnUse" height="63.05" width="36.1961" x="141.101" y="188.825"><feFlood flood-opacity="0" result="BackgroundImageFix"/><feBlend in="SourceGraphic" in2="BackgroundImageFix" mode="normal" result="shape"/><feGaussianBlur result="effect1_foregroundBlur_69_13204" stdDeviation="3.95563"/></filter><filter id="F" color-interpolation-filters="sRGB" filterUnits="userSpaceOnUse" height="62.1513" width="35.724" x="198.381" y="196.374"><feFlood flood-opacity="0" result="BackgroundImageFix"/><feBlend in="SourceGraphic" in2="BackgroundImageFix" mode="normal" result="shape"/><feGaussianBlur result="effect1_foregroundBlur_69_13204" stdDeviation="3.95563"/></filter><filter id="G" color-interpolation-filters="sRGB" filterUnits="userSpaceOnUse" height="155.787" width="171.184" x="202.93" y="200.134"><feFlood flood-opacity="0" result="BackgroundImageFix"/><feColorMatrix in="SourceAlpha" result="hardAlpha" type="matrix" values="0 0 0 0 0 0 0 0 0 0 0 0 0 0 0 0 0 0 127 0"/><feOffset dy="4.08255"/><feGaussianBlur stdDeviation="2.04128"/><feComposite in2="hardAlpha" operator="out"/><feColorMatrix type="matrix" values="0 0 0 0 0 0 0 0 0 0 0 0 0 0 0 0 0 0 0.25 0"/><feBlend in2="BackgroundImageFix" mode="normal" result="effect1_dropShadow_69_13204"/><feBlend in="SourceGraphic" in2="effect1_dropShadow_69_13204" mode="normal" result="shape"/></filter><filter id="H" color-interpolation-filters="sRGB" filterUnits="userSpaceOnUse" height="89.2904" width="129.234" x="234.863" y="207.739"><feFlood flood-opacity="0" result="BackgroundImageFix"/><feBlend in="SourceGraphic" in2="BackgroundImageFix" mode="normal" result="shape"/><feGaussianBlur result="effect1_foregroundBlur_69_13204" stdDeviation="4.41352"/></filter><filter id="I" color-interpolation-filters="sRGB" filterUnits="userSpaceOnUse" height="206.845" width="259.686" x="112.859" y="-68.4308"><feFlood flood-opacity="0" result="BackgroundImageFix"/><feColorMatrix in="SourceAlpha" result="hardAlpha" type="matrix" values="0 0 0 0 0 0 0 0 0 0 0 0 0 0 0 0 0 0 127 0"/><feOffset dy="8.1651"/><feGaussianBlur stdDeviation="4.08255"/><feComposite in2="hardAlpha" operator="out"/><feColorMatrix type="matrix" values="0 0 0 0 0 0 0 0 0 0 0 0 0 0 0 0 0 0 0.25 0"/><feBlend in2="BackgroundImageFix" mode="normal" result="effect1_dropShadow_69_13204"/><feBlend in="SourceGraphic" in2="effect1_dropShadow_69_13204" mode="normal" result="shape"/></filter><filter id="J" color-interpolation-filters="sRGB" filterUnits="userSpaceOnUse" height="69.6685" width="77.2786" x="175.212" y="-66.5413"><feFlood flood-opacity="0" result="BackgroundImageFix"/><feBlend in="SourceGraphic" in2="BackgroundImageFix" mode="normal" result="shape"/><feGaussianBlur result="effect1_foregroundBlur_69_13204" stdDeviation="2.69852"/></filter><linearGradient id="K" gradientUnits="userSpaceOnUse" x1="133.351" x2="566.157" y1="369.755" y2="369.755"><stop offset="0" stop-color="#0572ec"/><stop offset="1" stop-color="#034ea6"/></linearGradient><linearGradient id="L"><stop offset=".192708" stop-color="#5192df"/><stop offset=".703125" stop-color="#75acec" stop-opacity=".56129"/><stop offset="1" stop-color="#a3cdfc" stop-opacity="0"/></linearGradient><radialGradient id="M" cx="0" cy="0" gradientTransform="matrix(0 13.2513 -43.0667 0 1250.93 762.697)" gradientUnits="userSpaceOnUse" r="1" xlink:href="#L"/><radialGradient id="N" cx="0" cy="0" gradientTransform="matrix(0 13.2513 -43.0667 0 1413.55 387.154)" gradientUnits="userSpaceOnUse" r="1" xlink:href="#L"/><radialGradient id="O" cx="0" cy="0" gradientTransform="matrix(0 13.2513 -43.0667 0 1605.51 523.216)" gradientUnits="userSpaceOnUse" r="1" xlink:href="#L"/><radialGradient id="P" cx="0" cy="0" gradientTransform="matrix(0 13.2513 -43.0667 0 1969 260.163)" gradientUnits="userSpaceOnUse" r="1" xlink:href="#L"/><radialGradient id="Q" cx="0" cy="0" gradientTransform="matrix(0 13.2513 -36.1051 0 1788.51 134.456)" gradientUnits="userSpaceOnUse" r="1" xlink:href="#L"/><radialGradient id="R" cx="0" cy="0" gradientTransform="matrix(0 13.2513 -43.0667 0 1802.57 650.026)" gradientUnits="userSpaceOnUse" r="1" xlink:href="#L"/><radialGradient id="S" cx="0" cy="0" gradientTransform="matrix(0 13.2513 -43.0667 0 1983.35 652.5)" gradientUnits="userSpaceOnUse" r="1" xlink:href="#L"/><radialGradient id="T" cx="0" cy="0" gradientTransform="matrix(0 13.2513 -43.0667 0 1058.68 630.494)" gradientUnits="userSpaceOnUse" r="1" xlink:href="#L"/><radialGradient id="U" cx="0" cy="0" gradientTransform="matrix(0 13.2513 -43.0667 0 843.365 475.061)" gradientUnits="userSpaceOnUse" r="1" xlink:href="#L"/><radialGradient id="V" cx="0" cy="0" gradientTransform="matrix(0 13.2513 -43.0667 0 868.511 205.391)" gradientUnits="userSpaceOnUse" r="1" xlink:href="#L"/><radialGradient id="W" cx="0" cy="0" gradientTransform="matrix(0 13.2513 -43.0667 0 1196.7 234.26)" gradientUnits="userSpaceOnUse" r="1" xlink:href="#L"/><radialGradient id="X" cx="0" cy="0" gradientTransform="matrix(0 13.2513 -39.8491 0 510.478 730.932)" gradientUnits="userSpaceOnUse" r="1" xlink:href="#L"/><linearGradient id="Y"><stop offset="0" stop-color="#ffd480"/><stop offset="1" stop-color="#ffaa05"/></linearGradient><linearGradient id="Z" gradientUnits="userSpaceOnUse" x1="1970.08" x2="2018.45" xlink:href="#Y" y1="193.439" y2="281.65"/><linearGradient id="aa"><stop offset="0" stop-color="#fffaef"/><stop offset=".473958" stop-color="#ffd480"/><stop offset=".979167" stop-color="#ffaa05"/></linearGradient><linearGradient id="ab" gradientUnits="userSpaceOnUse" x1="1972.56" x2="1998.56" xlink:href="#aa" y1="165.445" y2="212.499"/><linearGradient id="ac" gradientUnits="userSpaceOnUse" x1="1790.5" x2="1793.48" y1="49.73" y2="54.1197"><stop offset="0" stop-color="#e6e6e8"/><stop offset="1" stop-color="#b9bdc2"/></linearGradient><linearGradient id="ad" gradientUnits="userSpaceOnUse" x1="2.41298" x2="2.41298" y1="4.45418" y2="-1.75773"><stop offset="0" stop-color="#656e76"/><stop offset="1" stop-color="#051627"/></linearGradient><linearGradient id="ae" gradientUnits="userSpaceOnUse" x1="36.8618" x2="36.8618" y1="10.9653" y2="-8.26113"><stop offset="0" stop-color="#051627"/><stop offset="1" stop-color="#35414c"/></linearGradient><linearGradient id="af"><stop offset="0" stop-color="#b9bdc2"/><stop offset="1" stop-color="#e6e6e8"/></linearGradient><linearGradient id="ag" gradientUnits="userSpaceOnUse" x1="33.1452" x2="33.1452" xlink:href="#af" y1="107.112" y2="-64.9851"/><linearGradient id="ah"><stop offset=".356288" stop-color="#034ea6"/><stop offset="1" stop-color="#0572ec"/></linearGradient><linearGradient id="ai" gradientUnits="userSpaceOnUse" x1="28.1696" x2="27.9928" xlink:href="#ah" y1="18.3974" y2="-12.9036"/><linearGradient id="aj"><stop offset="0" stop-color="#c9edff"/><stop offset=".505208" stop-color="#66cbff"/><stop offset="1" stop-color="#248aff"/><stop offset="1" stop-color="#459bff"/></linearGradient><linearGradient id="ak" gradientUnits="userSpaceOnUse" x1="16.8475" x2="16.8475" xlink:href="#aj" y1="0" y2="42.6144"/><linearGradient id="al" gradientUnits="userSpaceOnUse" x1="33.0973" x2="33.0973" y1="10.5104" y2="52.3364"><stop offset="0" stop-color="#4c6ce8"/><stop offset="1" stop-color="#0572ec"/></linearGradient><linearGradient id="am"><stop offset="0" stop-color="#ffd480"/><stop offset="1" stop-color="#034ea6"/></linearGradient><linearGradient id="an" gradientUnits="userSpaceOnUse" x1="1179.71" x2="1203.13" xlink:href="#am" y1="144.313" y2="176.548"/><linearGradient id="ao" gradientUnits="userSpaceOnUse" x1="1205.59" x2="1229.01" xlink:href="#am" y1="125.508" y2="157.743"/><linearGradient id="ap"><stop offset="0" stop-color="#b9bdc2"/><stop offset="1" stop-color="#848c93"/></linearGradient><linearGradient id="aq" gradientUnits="userSpaceOnUse" x1="1248.78" x2="1242.3" xlink:href="#ap" y1="710.833" y2="701.696"/><linearGradient id="ar"><stop offset="0" stop-color="#eb7100"/><stop offset="1" stop-color="#ffaa05"/></linearGradient><linearGradient id="as" gradientUnits="userSpaceOnUse" x1="30.6191" x2="30.6191" xlink:href="#ar" y1="76.2341" y2="-5.37043"/><linearGradient id="at" gradientUnits="userSpaceOnUse" x1="27.5572" x2="27.5572" xlink:href="#ar" y1="79.2703" y2="-4.83339"/><linearGradient id="au" gradientUnits="userSpaceOnUse" x1="1057.24" x2="1053.55" y1="556.496" y2="550.37"><stop offset="0" stop-color="#35414c"/><stop offset="1"/></linearGradient><linearGradient id="av" gradientUnits="userSpaceOnUse" x1="15.926" x2="15.926" y1="2.06745" y2="7.73285"><stop offset="0" stop-color="#051627"/><stop offset="1" stop-color="#c4c4c4" stop-opacity="0"/><stop offset="1" stop-color="#f8f8f9" stop-opacity="0"/></linearGradient><linearGradient id="aw" gradientUnits="userSpaceOnUse" x1="1057.23" x2="1046.49" y1="556.576" y2="540.503"><stop offset="0" stop-color="#992a2a"/><stop offset="1" stop-color="#f17ba5"/></linearGradient><linearGradient id="ax" gradientUnits="userSpaceOnUse" x1="10.604" x2="9.56101" y1="-73.0818" y2="180.874"><stop offset="0" stop-color="#96c6fc"/><stop offset=".9999" stop-color="#4c6ce8"/></linearGradient><linearGradient id="ay" gradientUnits="userSpaceOnUse" x1="32.1811" x2="32.1811" y1="-24.8185" y2="79.8029"><stop offset=".10353" stop-color="#dfdfdf"/><stop offset="1" stop-color="#b9bdc2"/></linearGradient><linearGradient id="az" gradientUnits="userSpaceOnUse" x1="22.3297" x2="22.3297" y1="0" y2="44.6594"><stop offset="0" stop-color="#4c6ce8"/><stop offset="1" stop-color="#c3fcff" stop-opacity="0"/></linearGradient><linearGradient id="aA" gradientUnits="userSpaceOnUse" x1="840.384" x2="869.46" y1="351.269" y2="393.178"><stop offset="0"/><stop offset="1" stop-color="#005358"/></linearGradient><linearGradient id="aB"><stop offset=".29084" stop-color="#ffaa05"/><stop offset="1" stop-color="#ffe3ac" stop-opacity="0"/></linearGradient><linearGradient id="aC" gradientUnits="userSpaceOnUse" x1="510.956" x2="503.286" xlink:href="#aB" y1="702.809" y2="691.22"/><linearGradient id="aD" gradientUnits="userSpaceOnUse" x1="374.35" x2="374.35" y1="-5.57982" y2="95.2538"><stop offset="0" stop-color="#0572ec"/><stop offset="1" stop-color="#005358"/></linearGradient><linearGradient id="aE"><stop offset="0" stop-color="#66cbff"/><stop offset="1" stop-color="#00848c"/></linearGradient><linearGradient id="aF" gradientUnits="userSpaceOnUse" x1="334.392" x2="321.094" xlink:href="#aE" y1="-16.5267" y2="98.0692"/><linearGradient id="aG" gradientUnits="userSpaceOnUse" x1="411.009" x2="397.711" xlink:href="#aE" y1="-7.63623" y2="106.96"/><linearGradient id="aH" gradientUnits="userSpaceOnUse" x1="384.769" x2="384.769" xlink:href="#aB" y1="234.012" y2="207.367"/><linearGradient id="aI" gradientUnits="userSpaceOnUse" x1="157.112" x2="156.757" xlink:href="#ah" y1="83.9602" y2="21.1494"/><linearGradient id="aJ" gradientUnits="userSpaceOnUse" x1="144.998" x2="144.998" xlink:href="#aj" y1="89.9334" y2="175.446"/><linearGradient id="aK" gradientUnits="userSpaceOnUse" x1="65.7125" x2="65.7125" xlink:href="#af" y1="212.355" y2="-128.837"/><linearGradient id="aL" gradientUnits="userSpaceOnUse" x1="372.402" x2="379.984" xlink:href="#ap" y1="279.936" y2="255.492"/><linearGradient id="aM" gradientUnits="userSpaceOnUse" x1="270.877" x2="329.109" y1="263.746" y2="505.707"><stop offset="0" stop-color="#ca7e20"/><stop offset="1" stop-color="#ffaa05"/></linearGradient><linearGradient id="aN" gradientUnits="userSpaceOnUse" x1="290.609" x2="348.841" xlink:href="#Y" y1="259.41" y2="501.371"/><linearGradient id="aO" gradientUnits="userSpaceOnUse" x1="283.014" x2="314.668" xlink:href="#aa" y1="201.818" y2="331.223"/><clipPath id="aP"><path d="m0 0h2080v800h-2080z"/></clipPath><clipPath id="aQ"><path d="m0 0h71.0904v71.0904h-71.0904z" transform="matrix(.884988 -.465614 -.0165799 .999863 1941.14 179.774)"/></clipPath><clipPath id="aR"><path d="m0 0h70.7098v70.7098h-70.7098z" transform="matrix(.75184 -.659346 -.00820296 .999966 1776.22 564.326)"/></clipPath><clipPath id="aS"><path d="m0 0h70.6063v70.6063h-70.6063z" transform="matrix(.866025 -.5 -.0329807 .999456 1387.68 303.759)"/></clipPath><clipPath id="aT"><path d="m0 0h65.3208v65.3208h-65.3208z" transform="matrix(.83147 -.55557 -.0742825 .997237 1032.3 544.841)"/></clipPath><clipPath id="aU"><path d="m0 0h84.0648v84.0648h-84.0648z" transform="matrix(.838671 -.544639 0 1 806.993 382.412)"/></clipPath><mask id="aV" height="958" maskUnits="userSpaceOnUse" width="1856" x="328" y="-63"><path d="m2144.96 392.094-616.62-417.5814 60.53-37.2693 594.35 400.7417z" fill="#0572ec" fill-opacity=".6"/><path d="m721.156 809.444-37.502 54.618-354.903-243.626v-43.188c0-3.07.276-6.272.795-9.563 1.16-7.255 3.556-14.897 7.024-22.262z" fill="#0572ec" fill-opacity=".6"/><path d="m1423.73 894.219c-1.47-.96-148.27-97.065-301.12-200.757-312.626-212.087-345.556-248.672-356.378-260.697-32.178-35.757-44.69-83.02-35.204-133.076 12.522-66.125 62.071-129.587 126.241-161.666 55.147-27.574 119.813-38.396 187.011-31.296 57.27 6.052 113.06 24.681 157.09 52.465 19.37 12.213 61.84 43.641 120.62 87.127 82.41 60.978 195.27 144.483 298.86 214.892 147.83 100.478 210.99 129.355 237.93 135.881 50.65 12.279 96.86 4.229 141.24-24.614 39.28-25.531 69.17-62.48 88.96-86.929 5.68-7.023 33.96-39.5 38.56-44.701l35.41 78.282c-3.48 3.942-7.89 9.408-13.02 15.736-22.89 28.292-57.49 71.06-107.18 103.36-62.57 40.671-130.67 52.464-202.43 35.072-100.29-24.316-334.09-193.127-564.95-363.947-55.26-40.891-98.91-73.18-115.82-83.848-33.58-21.191-78.6-36.054-123.5-40.803-36.462-3.854-90.98-2.904-143.71 23.455-42.393 21.202-76.261 63.849-84.267 106.132-4.958 26.182.574 48.4 16.454 66.036 13.958 15.504 76.957 68.376 342.053 248.219 152.31 103.327 298.65 199.134 300.1 200.083z" fill="#0572ec" fill-opacity=".6"/></mask><mask id="aW" height="101" maskUnits="userSpaceOnUse" width="51" x="1777" y="526"><rect fill="#b9bdc2" height="66.2904" rx="11.0484" transform="matrix(.75184 -.659346 -.00820296 .999966 1777.87 565.078)" width="66.2904"/></mask><mask id="aX" height="32" maskUnits="userSpaceOnUse" width="25" x="1594" y="446"><circle fill="#248aff" r="13.6782" transform="matrix(.85264 -.522499 -.0495471 .998772 1606.63 461.674)"/></mask><mask id="aY" height="31" maskUnits="userSpaceOnUse" width="22" x="1394" y="314"><path clip-rule="evenodd" d="m1414.57 317.465s-8.89-5.89-15.17-.977c-6.29 4.912-7.7 30.827.43 27.64 8.99-3.528 15.17-17.171 15.17-17.171z" fill="#ffaa05" fill-rule="evenodd"/></mask><mask id="aZ" height="33" maskUnits="userSpaceOnUse" width="23" x="1418" y="295"><path clip-rule="evenodd" d="m1419.94 314.428s9.65-16.573 15.86-18.874c6.2-2.301 5.93 22.907-2.31 29.165-9.12 6.929-14.63.056-14.63.056z" fill="#ffaa05" fill-rule="evenodd"/></mask><mask id="a0" height="101" maskUnits="userSpaceOnUse" width="70" x="834" y="88"><rect fill="#eb7100" height="75.0907" rx="11.5672" transform="matrix(-.0165799 -.999863 -.902585 .430511 903.729 159.812)" width="75.0907"/></mask><mask id="a1" height="40" maskUnits="userSpaceOnUse" width="28" x="847" y="133"><path d="m847.75 160.937 16.072-26.217c.399-.652 1.065-.972 1.482-.713l8.933 5.533c.415.258.428.99.027 1.636l-6.456 10.424c-.192.31-.455.559-.732.691l-4.658 2.222c-.277.132-.54.38-.733.69l-4.356 7.033c-.192.31-.297.657-.292.964l.06 3.62c.011.639-.448 1.38-1.025 1.655l-7.389 3.525c-.577.275-1.053-.02-1.064-.659l-.156-9.449c-.005-.303.098-.647.287-.955z" fill="#e6e6e8"/></mask><mask id="a2" height="112" maskUnits="userSpaceOnUse" width="71" x="1215" y="633"><rect fill="#e6e6e8" height="75.6728" rx="11.6569" transform="matrix(.855517 -.606341 -.0908064 .995869 1221.85 674.086)" width="75.6728"/></mask><mask id="a3" height="88" maskUnits="userSpaceOnUse" width="55" x="1030" y="515"><rect fill="#248aff" height="61.2383" rx="10.2064" transform="matrix(.83147 -.55557 -.0742825 .997237 1033.85 545.742)" width="61.2383"/></mask><mask id="a4" height="51" maskUnits="userSpaceOnUse" width="32" x="1040" y="539"><path d="m0 0h33.9796v31.0006h-33.9796z" fill="#c4c4c4" transform="matrix(.83147 -.55557 -.0742825 .997237 1043.01 558.262)"/></mask><mask id="a5" height="60" maskUnits="userSpaceOnUse" width="30" x="1042" y="527"><rect fill="#e6e6e8" height="31.5897" rx="3.06191" transform="matrix(.0742825 -.997237 .83147 -.55557 1042.08 587.386)" width="44.0341"/></mask><mask id="a6" height="91" maskUnits="userSpaceOnUse" width="55" x="815" y="356"><rect fill="url(#ay)" height="64.3621" opacity=".6" rx="10.5081" transform="matrix(.838671 -.544639 0 1 815.255 386.898)" width="64.3621"/></mask><mask id="a7" height="106" maskUnits="userSpaceOnUse" width="55" x="482" y="605"><rect fill="#66cbff" height="80.6121" rx="11.6416" transform="matrix(.857566 -.567501 .041264 .99644 481.558 634.959)" width="60.4591"/></mask><mask id="a8" height="133" maskUnits="userSpaceOnUse" width="158" x="340" y="94"><rect fill="#66cbff" height="145.723" rx="21.0447" transform="matrix(1 0 -.424357 .905495 395.636 94.4203)" width="109.292"/></mask><mask id="a9" height="56" maskUnits="userSpaceOnUse" width="56" x="118" y="96"><circle cx="145.827" cy="124.175" fill="#248aff" r="27.4476" transform="matrix(.96725624 .25380184 -.25380184 .96725624 36.290768 -32.945204)"/></mask><mask id="ba" height="126" maskUnits="userSpaceOnUse" width="163" x="198" y="116"><rect fill="#b9bdc2" height="131.425" rx="20.2451" transform="matrix(1 0 .316808 .94849 193.324 116.876)" width="131.425"/></mask><mask id="bb" height="155" maskUnits="userSpaceOnUse" width="155" x="306" y="166"><rect fill="#e6e6e8" height="131.425" rx="20.2451" transform="matrix(.9551053 .29626654 -.29626654 .9551053 62.998539 -93.642378)" width="131.425" x="340.479" y="161.047"/></mask><mask id="bc" height="57" maskUnits="userSpaceOnUse" width="47" x="135" y="201"><path clip-rule="evenodd" d="m181.4 224.668s-18.189-23.992-32.361-23.026c-14.173.966-20.975 50.174-3.109 55.176 19.781 5.537 35.003-12.811 35.003-12.811z" fill="#ffaa05" fill-rule="evenodd"/></mask><mask id="bd" height="56" maskUnits="userSpaceOnUse" width="50" x="189" y="210"><path clip-rule="evenodd" d="m193.336 226.131s23.084-19.311 36.71-15.228c13.627 4.084 9.356 53.473-9.2 54.378-20.547 1.001-31.343-20.228-31.343-20.228z" fill="#ffaa05" fill-rule="evenodd"/></mask><mask id="be" height="170" maskUnits="userSpaceOnUse" width="231" x="134" y="-67"><rect fill="#6ae4a9" height="140.144" rx="26.9852" transform="matrix(.931143 -.364653 .554935 .831894 123.464 -6.47174)" width="186.858"/></mask><g clip-path="url(#aP)"><path d="m0 0h2080v800h-2080z" fill="#d0efff"/><g fill="#96c6fc"><path d="m915.439-293.334-1874.195 1293.874 2.015 2.92 1874.195-1293.876z" fill-opacity=".25"/><path d="m1621.21-293.334-1874.195 1293.874 2.015 2.92 1874.19-1293.876z" fill-opacity=".25"/><path d="m1268.32-293.334-1874.19 1293.874 2.015 2.92 1874.195-1293.876z" fill-opacity=".25"/><path d="m562.553-293.334-1874.193 1293.874 2.01 2.92 1874.198-1293.876z" fill-opacity=".25"/><path d="m1974.1-293.334-1874.1992 1293.874 2.0152 2.92 1874.194-1293.876z" fill-opacity=".25"/><path d="m2326.98-293.334-1874.194 1293.874 2.014 2.92 1874.19-1293.876z" fill-opacity=".25"/><path d="m2679.87-293.334-1874.198 1293.874 2.014 2.92 1874.194-1293.876z" fill-opacity=".25"/><path d="m3032.75-293.334-1874.19 1293.874 2.01 2.92 1874.2-1293.876z" fill-opacity=".25"/><path d="m3385.64-293.334-1874.2 1293.874 2.02 2.92 1874.19-1293.876z" fill-opacity=".25"/><path d="m915.439 1003.46-1874.195-1293.876 2.015-2.919 1874.195 1293.875z" fill-opacity=".25"/><path d="m1621.21 1003.46-1874.195-1293.876 2.015-2.919 1874.19 1293.875z" fill-opacity=".25"/><path d="m1268.32 1003.46-1874.19-1293.876 2.015-2.919 1874.195 1293.875z" fill-opacity=".25"/><path d="m562.553 1003.46-1874.193-1293.876 2.01-2.919 1874.198 1293.875z" fill-opacity=".25"/><path d="m1974.1 1003.46-1874.1992-1293.876 2.0152-2.919 1874.194 1293.875z" fill-opacity=".25"/><path d="m2326.98 1003.46-1874.194-1293.876 2.014-2.919 1874.19 1293.875z" fill-opacity=".25"/><path d="m2679.87 1003.46-1874.198-1293.876 2.014-2.919 1874.194 1293.875z" fill-opacity=".25"/><path d="m3032.75 1003.46-1874.19-1293.876 2.01-2.919 1874.2 1293.875z" fill-opacity=".25"/><path d="m3385.64 1003.46-1874.2-1293.876 2.02-2.919 1874.19 1293.875z" fill-opacity=".25"/><path d="m2089.8 502.157-759.98-525.2482 60.54-37.2693 737.7 508.4085z" fill-opacity=".23"/><path d="m1423.73 1051.77c-1.47-.96-148.27-97.07-301.12-200.761-312.627-212.087-345.556-248.672-356.378-260.697-32.179-35.757-44.69-83.02-35.204-133.077 12.522-66.124 62.071-129.586 126.24-161.666 55.148-27.573 119.814-38.395 187.012-31.295 57.27 6.052 113.06 24.681 157.09 52.464 19.37 12.214 61.84 43.641 120.62 87.128 82.41 60.978 195.27 144.483 298.86 214.892 147.83 100.478 210.99 129.355 237.93 135.881 50.65 12.279 96.86 4.229 141.24-24.614 39.28-25.531 69.17-62.48 88.96-86.929 5.68-7.023 33.96-39.5 38.56-44.701l35.41 78.282c-3.48 3.942-7.89 9.408-13.02 15.736-22.89 28.291-57.49 71.06-107.18 103.36-62.57 40.671-130.67 52.464-202.43 35.072-100.29-24.316-334.09-193.127-564.95-363.947-55.26-40.892-98.91-73.181-115.82-83.848-33.58-21.191-78.6-36.054-123.5-40.803-36.463-3.854-90.981-2.904-143.71 23.455-42.393 21.202-76.261 63.849-84.267 106.132-4.958 26.182.574 48.4 16.454 66.036 13.958 15.504 76.957 68.376 342.053 248.219 152.31 103.327 298.65 199.134 300.1 200.083z" fill-opacity=".23"/><path d="m676.277 906.532-12.633 18.397-24.868 36.221-273.794-187.959-81.109-55.667v-43.188c0-3.07.276-6.272.795-9.563 1.159-7.255 3.556-14.897 7.023-22.262l73.622 50.543z" fill-opacity=".23"/></g><path d="m857.61 643.008-30.301-20.927v-110.979h30.301z" fill="#0572ec"/><path d="m857.61 643.008 30.301-22.947v-103.416h-30.301z" fill="#034ea6"/><path d="m1214.78 399.923-30.3-21.334v-109.323h30.3z" fill="#0572ec"/><path d="m1214.78 400.045 30.3-22.947v-103.415h-30.3z" fill="#034ea6"/><path d="m1609.53 682.574-30.31-19.634v-112.084h30.31z" fill="#0572ec"/><path d="m1609.53 682.574 30.3-22.947v-103.404h-30.3z" fill="#034ea6"/><path d="m1984.94 408.868-30.3-19.789v-106.562h30.3z" fill="#0572ec"/><path d="m1984.94 408.868 30.3-22.947v-103.404h-30.3z" fill="#034ea6"/><path d="m1577.46 129.486-30.3-20.892v-105.45875h30.3z" fill="#0572ec"/><path d="m1577.21 129.486 30.3-22.946v-103.40475h-30.3z" fill="#034ea6"/><path d="m272.079 736.264-141.624-108.109v-154.444l141.624 111.819z" fill="#034ea6"/><path d="m427.472 467.284-4.814 161.602-150.579 107.377v-150.744z" fill="#02346e"/><path d="m272.764 704.751-158.816-119.663v-166.745l158.816 117.708z" fill="#0572ec"/><path d="m442.943 399.614v178.337l-32.753 26.404-79.275 59.7-58.218 40.328v-168.711z" fill="#034ea6"/><path d="m410.268 538.002-.078 65.946-79.276 60.107c-1.424-5.267-2.164-10.557-2.164-15.625v-71.182c0-3.07.276-6.272.795-9.563 1.16-7.255 3.556-14.897 7.023-22.262 4.903-10.48 11.971-20.374 20.639-27.806 9.541-8.183 19.678-12.423 28.513-12.423 13.914 0 24.581 10.535 24.548 32.808z" fill="#0a2d4d"/><path d="m144.115 390.742-30.176 27.597 158.604 122.78-2.187-56.237z" fill="#c2eaff"/><path d="m407.573 374.05 35.613 26.271-170.644 140.908-2.205-56.539z" fill="#96c6fc"/><path d="m89.884 253.706 54.154 138.134 126.24 92.936 137.295-110.726 57.242-102.817z" fill="url(#K)"/><path d="m277.644 363.217c106.009 0 191.945-52.119 191.945-116.412s-85.936-116.413-191.945-116.413c-106.008 0-191.9448 52.12-191.9448 116.413s85.9368 116.412 191.9448 116.412z" fill="#96c6fc"/><path d="m277.644 350.088c98.367 0 178.109-47.611 178.109-106.342s-79.742-106.342-178.109-106.342c-98.366 0-178.1081 47.611-178.1081 106.342s79.7421 106.342 178.1081 106.342z" fill="#02346e"/><path d="m2144.06 422.186-635.88-430.22589 79.79-24.62531 594.34 400.7412z" fill="#0572ec"/><path d="m721.155 836.521-37.501 54.618-281.436-193.193-73.467-50.433v-70.265c0-3.07.276-6.272.795-9.563l80.601 55.335 298.375 204.821z" fill="#0572ec"/><path d="m1424.63 921.903c-1.47-.96-148.27-97.065-301.11-200.757-312.632-212.087-345.572-248.683-356.383-260.708-32.178-35.757-44.69-83.02-35.204-133.076 12.522-66.124 62.071-129.587 126.241-161.666 55.147-27.574 119.813-38.396 187.006-31.295 57.27 6.051 113.07 24.68 157.1 52.464 19.37 12.213 61.84 43.641 120.62 87.127 82.41 60.978 195.27 144.483 298.86 214.892 147.83 100.478 210.98 129.355 237.92 135.881 50.66 12.28 96.86 4.229 141.24-24.614 39.28-25.531 69.17-62.48 88.96-86.929 5.69-7.023 10.59-13.097 15.19-18.287l58.79 51.868c-3.48 3.942-7.9 9.409-13.02 15.736-22.89 28.292-57.49 71.06-107.18 103.36-62.57 40.671-130.67 52.464-202.44 35.072-100.29-24.316-334.09-193.127-564.95-363.947-55.25-40.891-98.91-73.18-115.81-83.848-33.58-21.191-78.6-36.054-123.5-40.803-36.47-3.854-90.986-2.904-143.715 23.455-42.393 21.202-76.261 63.849-84.267 106.132-4.958 26.182.574 48.4 16.454 66.036 13.958 15.504 76.957 68.376 342.048 248.219 152.31 103.327 298.65 199.134 300.11 200.083z" fill="#0572ec"/><path d="m2144.96 392.094-616.62-417.5814 60.53-37.2693 594.35 400.7417z" fill="#9cc9fc"/><path d="m721.155 809.444-12.633 18.397-24.868 36.22-273.794-187.958-81.109-55.667v-43.188c0-3.07.276-6.272.795-9.563 1.16-7.255 3.556-14.897 7.023-22.262l73.622 50.542z" fill="#9cc9fc"/><path d="m1423.73 894.219c-1.47-.96-148.27-97.065-301.12-200.757-312.627-212.087-345.557-248.672-356.379-260.697-32.178-35.757-44.69-83.02-35.204-133.076 12.523-66.124 62.071-129.587 126.241-161.666 55.147-27.574 119.814-38.396 187.012-31.296 57.26 6.052 113.06 24.681 157.09 52.465 19.37 12.213 61.84 43.641 120.62 87.127 82.41 60.978 195.27 144.483 298.86 214.892 147.83 100.478 210.98 129.355 237.93 135.881 50.65 12.279 96.86 4.229 141.24-24.614 39.27-25.531 69.17-62.48 88.96-86.929 5.68-7.023 33.96-39.5 38.56-44.701l35.41 78.282c-3.48 3.942-7.89 9.409-13.02 15.736-22.89 28.292-57.49 71.06-107.18 103.36-62.57 40.671-130.67 52.464-202.43 35.072-100.29-24.316-334.09-193.127-564.95-363.947-55.26-40.891-98.91-73.18-115.82-83.848-33.58-21.191-78.6-36.054-123.5-40.803-36.463-3.854-90.981-2.904-143.71 23.455-42.394 21.202-76.262 63.849-84.268 106.132-4.958 26.182.575 48.4 16.454 66.036 13.958 15.504 76.957 68.376 342.054 248.219 152.31 103.327 298.65 199.134 300.1 200.083z" fill="#9cc9fc"/><g mask="url(#aV)"><g fill="#0572ec" fill-opacity=".6"><path d="m806.748 336.626-78.028 14.367c.066.729.154 1.458.265 2.187l78.006-14.367z"/><path d="m826.922 382.84-66.654 45.143c-.475-.574-.938-1.159-1.38-1.745l66.51-45.043c0 .011.001.011.012.022.452.497.949 1.038 1.512 1.623z"/><path d="m1169.5 143.634-57.65 62.688c-.65-.34-1.31-.68-1.98-1.007l57.97-63.041c.56.445 1.12.902 1.66 1.36z"/><path d="m885.704 431.274-68.245 46.39c-.618-.497-1.225-.971-1.822-1.435l68.2-46.369c.619.475 1.237.95 1.867 1.414z"/><path d="m1241.42 186.809c.63.464 1.27.917 1.91 1.381l-69.49 47.219c-.66-.464-1.31-.917-1.94-1.348z"/><path d="m948.217 477.245-68.664 47.042c-.64-.464-1.259-.928-1.888-1.38l68.642-47.031c.629.452 1.269.905 1.91 1.369z"/><path d="m1302.3 231.985c.62.464 1.25.928 1.88 1.381l-68.47 46.92c-.64-.475-1.27-.938-1.88-1.391z"/><path d="m1663.45-12.7662-58.77 40.2619-1.97-1.3251 58.77-40.2619z"/><path d="m1011.94 522.432-68.748 47.473c-.641-.442-1.281-.906-1.921-1.347l68.749-47.473c.64.452 1.28.905 1.92 1.347z"/><path d="m1363.47 276.962c.63.464 1.25.928 1.88 1.392l-68.32 47.241c-.61-.453-1.24-.917-1.87-1.381z"/><path d="m1726.01 29.417-58.55 40.4165-1.96-1.3251 58.55-40.4165z"/><path d="m1076.38 567.188-68.72 47.815c-.65-.453-1.29-.905-1.94-1.347l68.72-47.804c.65.441 1.29.894 1.94 1.336z"/><path d="m1424.64 322.194c.63.463 1.26.916 1.89 1.38l-67.99 47.307-1.89-1.391z"/><path d="m1788.64 71.6446-58.32 40.5714-1.97-1.325 58.32-40.5715z"/><path d="m1141.29 611.646-68.62 48.103c-.65-.453-1.31-.895-1.96-1.337l68.62-48.102c.65.442 1.31.895 1.96 1.336z"/><path d="m1486.37 367.027c.63.453 1.26.906 1.9 1.369l-67.87 47.573c-.63-.453-1.25-.917-1.88-1.37z"/><path d="m1851.31 113.905-58.09 40.715-1.97-1.314 58.1-40.726z"/><path d="m1206.54 655.873-68.48 48.356c-.65-.442-1.3-.884-1.95-1.314l68.48-48.368c.65.453 1.3.884 1.95 1.326z"/><path d="m1548.74 411.496c.64.464 1.28.906 1.91 1.347l-67.84 47.926c-.64-.453-1.27-.905-1.91-1.358z"/><path d="m1914.05 156.199-57.88 40.88-1.95-1.325 57.87-40.869z"/><path d="m1272.09 699.922-68.31 48.599c-.65-.431-1.3-.872-1.96-1.314l68.3-48.599c.67.441 1.32.883 1.97 1.314z"/><path d="m1611.94 455.436c.65.441 1.3.883 1.96 1.325l-67.96 48.345c-.65-.442-1.29-.884-1.93-1.336z"/><path d="m1976.85 198.548-57.67 41.013-1.95-1.314 57.66-41.024z"/><path d="m1337.87 743.839-68.13 48.82c-.65-.442-1.31-.883-1.97-1.314l68.14-48.82c.66.431 1.31.861 1.96 1.314z"/><path d="m1676.39 498.535c.66.442 1.32.873 1.98 1.303l-68.26 48.92c-.65-.431-1.32-.872-1.97-1.314z"/><path d="m2039.69 240.919-57.44 41.167-1.96-1.325 57.45-41.156z"/><path d="m1403.88 787.59-67.95 49.052c-.65-.431-1.31-.872-1.97-1.303l67.96-49.052c.66.442 1.31.873 1.96 1.303z"/><path d="m1742.76 540.299c.69.431 1.38.839 2.06 1.237l-68.93 49.748c-.67-.409-1.35-.829-2.02-1.259z"/><path d="m2102.59 283.334-57.23 41.3-1.95-1.314 57.24-41.3z"/><path d="m1812.95 579.324c.76.365 1.52.729 2.26 1.094l-70.76 51.415c-.7-.387-1.41-.773-2.13-1.171z"/><path d="m1826.53 669.919 63.61-68.079c.94.089 1.88.166 2.82.232l-64.11 68.609h-.01z"/><path d="m823.864 284.19-78.515-29.28c-.049.07-.956 1.518-.993 1.588 0-.079 78.601 29.332 78.601 29.332z"/><path d="m861.648 229.339-67.963-44.762c-.74.764-.74.764-1.292 1.316l67.361 44.723z"/><path d="m1941.09 679.184 9.02-83.428c-.76.231-1.53.441-2.29.662l-8.98 83.086z"/><path d="m2043.27 639.33-58.91-57.886-2.04 1.082 59.04 58.019z"/><path d="m2114.32 578.507-72.29-40.008c-.55.53-1.1 1.071-1.65 1.601l72.38 40.063z"/><path d="m924.608 196.218-35.359-71.888c-.696.254-1.392.507-2.087.773l35.314 71.811z"/><path d="m1080.44 112.061-34.87 74.572c.77.099 1.53.199 2.3.32l34.81-74.45z"/><path d="m991.416 104.673 6.261 79.365c-.729.011-1.469.033-2.208.066l-6.262-79.331z"/></g><path d="m339.993 628.851 57.456-42.018" stroke="#0572ec" stroke-miterlimit="10" stroke-width="2.04128"/><path d="m327.86 573.23 23.667-18.557" stroke="#0572ec" stroke-miterlimit="10" stroke-width="2.04128"/><path d="m458.416 628.652 1.965 1.347-59.067 39.821-17.79 12.003-1.237-1.833 17.072-11.507z" fill="#0572ec" fill-opacity=".6"/><path d="m524.572 674.071 1.954 1.336-58.814 39.986-17.889 12.158-1.248-1.822 17.183-11.672z" fill="#0572ec" fill-opacity=".6"/><path d="m590.729 719.49 1.954 1.336-58.593 40.14-17.966 12.313-1.248-1.822 17.271-11.827z" fill="#0572ec" fill-opacity=".6"/><path d="m656.886 764.898 1.955 1.347-58.372 40.295-18.055 12.467-1.248-1.822 17.359-11.981z" fill="#0572ec" fill-opacity=".6"/></g><path d="m1207.86 749.446h86.1335v26.5026h-86.1335z" fill="url(#M)" fill-opacity=".7" transform="matrix(.82091705 -.57104745 .57104745 .82091705 -211.6621 823.958371)"/><path d="m1370.48 373.903h86.1335v26.5026h-86.1335z" fill="url(#N)" fill-opacity=".7" transform="matrix(.86035175 -.50970077 .50970077 .86035175 .806492 750.749607)"/><path d="m1562.44 509.964h86.1335v26.5026h-86.1335z" fill="url(#O)" fill-opacity=".7" transform="matrix(.86035175 -.50970077 .50970077 .86035175 -41.737025 867.592447)"/><path d="m1925.93 246.911h86.1335v26.5026h-86.1335z" fill="url(#P)" fill-opacity=".7" transform="matrix(.86035175 -.50970077 .50970077 .86035175 143.102034 1016.128687)"/><path d="m1752.41 121.205h72.2102v26.5026h-72.2102z" fill="url(#Q)" fill-opacity=".7" transform="matrix(.86035175 -.50970077 .50970077 .86035175 182.942713 910.130787)"/><path d="m1759.5 636.775h86.1335v26.5026h-86.1335z" fill="url(#R)" fill-opacity=".7" transform="matrix(.76889875 -.63937056 .63937056 .76889875 -.512535 1272.132007)"/><path d="m1940.29 639.249h86.1335v26.5026h-86.1335z" fill="url(#S)" fill-opacity=".7" transform="matrix(.92807693 -.37238853 .37238853 .92807693 -98.497376 768.518503)"/><path d="m1015.62 617.243h86.1335v26.5026h-86.1335z" fill="url(#T)" fill-opacity=".7" transform="matrix(.82824034 -.56037304 .56037304 .82824034 -171.443787 675.143519)"/><path d="m800.298 461.81h86.1335v26.5026h-86.1335z" fill="url(#U)" fill-opacity=".7" transform="matrix(.86035175 -.50970077 .50970077 .86035175 -123.624693 472.403464)"/><path d="m825.444 192.14h86.1335v26.5026h-86.1335z" fill="url(#V)" fill-opacity=".7" transform="matrix(.9088805 -.41705664 .41705664 .9088805 -4.919216 361.764605)"/><path d="m1153.63 221.009h86.1335v26.5026h-86.1335z" fill="url(#W)" fill-opacity=".7" transform="matrix(.81119958 -.58476939 .58476939 .81119958 88.566528 716.3341)"/><path d="m470.629 717.681h79.6983v26.5026h-79.6983z" fill="url(#X)" fill-opacity=".7" transform="matrix(.84413335 -.53613327 .53613327 .84413335 -311.417299 364.182401)"/><path d="m1958.56 222.842c16.19-8.519 29.57-30.255 29.87-48.549.3-18.293-12.58-26.217-28.77-17.698s-29.56 30.255-29.87 48.548c-.3 18.294 12.58 26.218 28.77 17.699z" fill="#eb7100"/><path d="m1981.61 156.358 11.89 8.223 1.45 11.373-17.67-6.073z" fill="#eb7100"/><path d="m1938.08 211.843 16.01 9.939-1.66 12.147-14.35-9.939z" fill="#eb7100"/><path d="m0 0h106.086v99.8485h-106.086z" fill="#000" fill-opacity=".01" transform="matrix(.884988 -.465614 -.0165799 .999863 1925.93 173.448)"/><g clip-path="url(#aQ)"><path d="m1971.45 232.083c16.29-8.569 29.74-30.433 30.05-48.835.3-18.402-12.65-26.372-28.94-17.803s-29.74 30.433-30.04 48.835c-.31 18.401 12.65 26.372 28.93 17.803z" fill="url(#Z)"/><path d="m2000.27 183.894c-.29 17.635-13.18 38.588-28.79 46.801-15.61 8.212-28.03.573-27.74-17.062.3-17.635 13.19-38.588 28.8-46.8 15.6-8.212 28.02-.573 27.73 17.061z" stroke="url(#ab)" stroke-width="2.77697"/><path d="m1971.57 224.864c12.76-6.713 23.3-23.84 23.54-38.254.24-14.415-9.91-20.659-22.67-13.946s-23.3 23.84-23.53 38.254c-.24 14.415 9.91 20.658 22.66 13.946z" fill="#ffaa05"/><path d="m1971.55 226.252c13.44-7.069 24.53-25.107 24.79-40.289.25-15.181-10.44-21.757-23.88-14.687-13.43 7.069-24.53 25.107-24.78 40.289-.26 15.181 10.43 21.757 23.87 14.687z" opacity=".3" stroke="#fffaef" stroke-width="2.77697"/><path d="m1971.55 226.252c13.44-7.069 24.53-25.107 24.79-40.289.25-15.181-10.44-21.757-23.88-14.687-13.43 7.069-24.53 25.107-24.78 40.289-.26 15.181 10.43 21.757 23.87 14.687z" stroke="#ffe3ac" stroke-width="2.77697"/><path d="m1994.62 186.868c-.24 14.108-10.55 30.871-23.04 37.441-12.48 6.569-22.42.458-22.18-13.65.23-14.107 10.54-30.87 23.03-37.44 12.49-6.569 22.42-.459 22.19 13.649z" stroke="#f99904" stroke-width="1.11079"/><g filter="url(#a)" opacity=".3"><path clip-rule="evenodd" d="m1949.41 212.856c.98-14.038 11.19-30.111 23.46-36.563 12.26-6.452 22.11-.934 22.65 12.304.04-.567.06-1.131.07-1.69.24-14.415-9.91-20.659-22.67-13.946-12.76 6.712-23.29 23.839-23.53 38.254-.01.559-.01 1.107.02 1.641z" fill="#eb7100" fill-rule="evenodd"/></g><path clip-rule="evenodd" d="m1969.95 192.778c.02-1.43 1.24-2.737 2.69-3.5.37-.191.85-.445 1.33-.61.52-.186.68-.137.79.425l.4 2.539 6.08-2.888.13-8.002c-2.2.495-3.57.903-4.98 1.466l.06-3.397-7.77 4.09-.07 3.8c-3.6 3.004-6.27 7.109-6.35 12.116-.17 10.148 11.89.926 11.81 5.307-.02 1.609-1.21 3.118-2.82 3.966-.8.424-1.45.674-1.89.728-.32.08-.52.007-.55-.508l-.35-2.604-6.12 2.774-.13 7.868c1.6.002 3.52-.568 5.41-1.386l-.06 3.755 7.78-4.091.07-4.112c3.6-2.96 6.26-7.154 6.35-12.295.17-10.103-11.88-1.507-11.81-5.441z" fill="#ffe3ac" fill-rule="evenodd"/></g><path clip-rule="evenodd" d="m1756.54 63.9517c.12-4.4174 3.1-10.1784 6.65-12.8676l2.68-2.0251c.27-1.8449 2-4.0839 4.06-5.1678l6.08-3.2076c.52-2.2149 2.57-4.7596 4.98-6.0316 1.79-.945 3.34-.9546 4.18-.1885l3.78-2.8563c2.18-1.6527 4.08-1.7606 5.18-.573l13.59 9.0527-5.15 6.1231-7.62-3.337-.91 33.8545c-.12 4.4173-3.1 10.1783-6.66 12.8675l-16.82 12.728.23.083.2 14.857-13.41-6.921c-1.39-.385-2.24-1.915-2.17-4.399z" fill="#848c93" fill-rule="evenodd"/><rect fill="#b9bdc2" height="58" rx="8" transform="matrix(.827234 -.561858 -.0092672 .999957 1769.73 63.2075)" width="48"/><rect height="57" rx="7.5" stroke="#000" stroke-opacity=".04" transform="matrix(.827234 -.561858 -.0092672 .999957 1769.8 63.4373)" width="47" x=".408983" y=".21905"/><g filter="url(#b)"><rect fill="#f8f8f9" height="53.4501" rx="6" transform="matrix(.827234 -.561858 -.0092672 .999957 1771.51 65.5366)" width="45.8467"/></g><path d="m1801.17 75.7636c.03-3.3365-2.41-4.3886-5.43-2.3381-3.02 2.0506-5.52 6.4582-5.55 9.7947.03-3.3365-2.41-4.3886-5.43-2.338s-5.52 6.4582-5.55 9.7947c-.01 1.744.66 2.8704 1.75 3.2622l9.09 4.3712 9.3-16.9369c1.1-1.8073 1.8-3.8657 1.82-5.6098z" fill="#cc4e00"/><path d="m1776.61 98.1013 12.06-8.1898 1.9 2.0398 3.08-12.2844 1.96 5.5275 7.79-5.1562" stroke="#f8f8f9" stroke-width="1.53096"/><path d="m1776.91 71.2729 21.96-14.9133" stroke="#b9bdc2" stroke-linecap="round" stroke-width="1.53096"/><path d="m1776.86 76.8405 8.99-6.1009" stroke="#b9bdc2" stroke-linecap="round" stroke-width="1.53096"/><path d="m1789.84 68.028 3.99-2.7115" stroke="#b9bdc2" stroke-linecap="round" stroke-width="1.53096"/><g filter="url(#c)" opacity=".4"><rect fill="#b9bdc2" height="10.0219" rx="4.08255" transform="matrix(.827234 -.561858 -.0092672 .999957 1779.21 57.4518)" width="34.9882"/></g><path d="m1785.66 48.184c.48-2.8553 2.51-6.1358 4.93-7.7756 2.41-1.6397 4.41-1.0948 4.85 1.1324l6.09-4.135c2.2-1.4976 3.97-.7174 3.95 1.7424-.03 2.4599-1.83 5.668-4.04 7.1655l-21.95 14.9133c-2.21 1.4975-3.98.7174-3.95-1.7425.02-2.4598 1.82-5.6679 4.03-7.1655z" fill="url(#ac)"/><ellipse fill="url(#ad)" rx="2.41298" ry="2.22709" transform="matrix(.827234 -.561858 -.0092672 .999957 1790.53 47.0894)"/><rect fill="#0572ec" height="58.4815" rx="11.2609" transform="matrix(.93358 -.358368 -.0165799 .999863 1937.94 573.278)" width="77.9753"/><path d="m2007.53 549.791 10.33 7.325-.43 8.366-11.99-8.001z" fill="#0572ec"/><path d="m1940.29 619.321 12.7 4.969-1.79 10.629-11.36-7.916z" fill="#0572ec"/><g filter="url(#d)"><rect fill="#66cbff" height="58.4815" rx="11.2609" transform="matrix(.93358 -.358368 -.0165799 .999863 1948.99 581.008)" width="77.9753"/></g><rect height="57.3554" rx="10.6978" stroke="#000" stroke-opacity=".05" stroke-width="1.12609" transform="matrix(.93358 -.358368 -.0165799 .999863 1949.03 581.193)" width="76.8492" x=".51631" y=".361189"/><path d="m0 0h77.9753v10.9653h-77.9753z" fill="url(#ae)" transform="matrix(.93358 -.358368 -.0165799 .999863 1948.8 591.972)"/><path d="m0 0h63.3549v7.31018h-63.3549z" fill="#f1faff" opacity=".6" transform="matrix(.93358 -.358368 -.0165799 .999863 1955.39 603.97)"/><g clip-rule="evenodd" fill="#0572ec" fill-rule="evenodd" opacity=".6"><path d="m1955.12 619.807c.01-.673.53-1.414 1.16-1.655l20.48-7.859c.62-.241 1.12.109 1.11.782-.01.672-.53 1.413-1.16 1.654l-20.47 7.86c-.63.241-1.13-.109-1.12-.782z"/><path d="m1955.02 625.898c.01-.673.53-1.414 1.16-1.655l9.1-3.493c.63-.241 1.13.109 1.12.782-.01.672-.53 1.413-1.16 1.654l-9.1 3.493c-.63.242-1.13-.108-1.12-.781z"/></g><path clip-rule="evenodd" d="m2003.41 601.922 10.85-4.164-.02 1.126-4.02 1.544-.07 3.747 4.03-1.544.1-5.805c.03-1.866-1.36-2.836-3.1-2.167l-7.7 2.954zm10.75 1.835-4.02 1.544-.08 4.31-1.05.404.07-4.31-10.84 4.164.02-1.126 10.84-4.164.07-3.747-10.85 4.164-.1 5.805c-.03 1.866 1.36 2.836 3.1 2.167l9.62-3.691c1.74-.669 3.17-2.723 3.2-4.588zm-11.73-5.741-.87.334c-1.74.669-3.18 2.723-3.21 4.589l-.01.931 4.02-1.544z" fill="#fdf8ff" fill-rule="evenodd"/><path clip-rule="evenodd" d="m1761.73 573.879c.06-6.763 4.22-15.862 9.31-20.322l31.4-27.535c2.33-2.045 4.45-2.76 6.06-2.282l15.69 2.787-2.72 15.161-10.01-1.601-.26 31.866c-.05 6.764-4.22 15.863-9.31 20.323l-21.34 18.718-.48 15.019-14.77-3.78c-2.39-.092-3.95-2.403-3.91-6.594z" fill="#848c93" fill-rule="evenodd"/><path d="m0 0h76.5042v76.5042h-76.5042z" fill="#000" fill-opacity=".01" transform="matrix(.75184 -.659346 -.00820296 .999966 1776.22 564.326)"/><g clip-path="url(#aR)"><g mask="url(#aW)"><path d="m0 0h66.2904v66.2904h-66.2904z" fill="url(#ag)" transform="matrix(.75184 -.659346 -.00820296 .999966 1777.87 565.078)"/><g filter="url(#e)" opacity=".3"><path d="m0 0h70.7098v5.5242h-70.7098z" fill="#656e76" transform="matrix(.75184 -.659346 -.00820296 .999966 1776.05 585.317)"/></g><g fill="#034ea6"><circle r="3.31452" transform="matrix(.75184 -.659346 -.00820296 .999966 1810.62 593.389)"/><circle r="3.31452" transform="matrix(.75184 -.659346 -.00820296 .999966 1810.8 571.293)"/><circle r="3.31452" transform="matrix(.75184 -.659346 -.00820296 .999966 1811 546.988)"/></g><circle fill="#248aff" r="3.31452" transform="matrix(.75184 -.659346 -.00820296 .999966 1802.31 600.674)"/><circle fill="#248aff" r="3.31452" transform="matrix(.75184 -.659346 -.00820296 .999966 1802.5 578.578)"/><circle fill="#248aff" r="3.31452" transform="matrix(.75184 -.659346 -.00820296 .999966 1802.7 554.272)"/><circle fill="#f1faff" r="3.31452" transform="matrix(.75184 -.659346 -.00820296 .999966 1794.01 607.959)"/><circle fill="#f1faff" r="3.31452" transform="matrix(.75184 -.659346 -.00820296 .999966 1794.19 585.863)"/><circle fill="#f1faff" r="3.31452" transform="matrix(.75184 -.659346 -.00820296 .999966 1794.39 561.557)"/><g filter="url(#f)" opacity=".3"><path d="m0 0h70.7098v4.41936h-70.7098z" fill="#656e76" transform="matrix(.75184 -.659346 -.00820296 .999966 1775.85 609.623)"/></g><path clip-rule="evenodd" d="m1829.17 544.219-53.16 46.622v-1.105l53.17-46.622z" fill="#656e76" fill-rule="evenodd"/><path clip-rule="evenodd" d="m1828.98 567.42-53.17 46.622.01-1.105 53.17-46.622z" fill="#656e76" fill-rule="evenodd"/><rect height="65.1856" rx="10.496" stroke="#000" stroke-opacity=".06" stroke-width="1.10484" transform="matrix(.75184 -.659346 -.00820296 .999966 1777.97 565.349)" width="65.1856" x=".4108" y=".188166"/></g></g><path clip-rule="evenodd" d="m1567.15 450.599c.18-5.365 4.13-12.095 8.75-14.93l36.98-22.659c2.36-1.444 4.42-1.592 5.84-.662l12.96 5.84-2.28 9.687h-9.24l-1.64 33.049c-.27 5.426-4.29 12.124-8.92 14.851l-27.85 16.42-.65 12.948-12.8-7.111c-1.67-.663-2.67-2.554-2.58-5.42z" fill="#0572ec" fill-rule="evenodd"/><path d="m0 0h72.8568v72.8568h-72.8568z" fill="#000" fill-opacity=".01" transform="matrix(.85264 -.522499 -.0495471 .998772 1577.71 444.636)"/><rect fill="url(#ai)" height="63.1299" rx="10.5217" transform="matrix(.85264 -.522499 -.0495471 .998772 1581.28 446.749)" width="63.1299"/><rect height="62.0778" rx="9.99557" stroke="#000" stroke-opacity=".1" stroke-width="1.05217" transform="matrix(.85264 -.522499 -.0495471 .998772 1581.35 446.97)" width="62.0778" x=".422494" y=".250559"/><path d="m1604.3 443.926c1.95-3.227 4.88-5.025 6.63-4.063 1 .55 2.44.209 3.91-.925 2.56-1.983 4.84-1.417 5.13 1.278.17 1.541 1.01 2.449 2.27 2.461 2.2.019 2.95 2.732 1.68 6.131-.72 1.944-.81 3.754-.24 4.907.99 2.014-.08 5.838-2.42 8.643-1.34 1.603-2.32 3.625-2.66 5.477-.59 3.24-3.06 6.715-5.59 7.854-1.44.651-2.94 2.111-4.06 3.957-1.95 3.227-4.88 5.025-6.63 4.063-.99-.55-2.44-.209-3.91.925-2.56 1.983-4.84 1.417-5.13-1.278-.17-1.541-1.01-2.449-2.27-2.461-2.2-.019-2.94-2.732-1.68-6.131.72-1.944.81-3.755.24-4.907-.99-2.014.08-5.838 2.42-8.643 1.34-1.603 2.32-3.625 2.66-5.477.59-3.24 3.06-6.715 5.59-7.854 1.44-.651 2.94-2.111 4.06-3.957z" fill="#66cbff"/><circle r="16.3215" stroke="url(#ak)" stroke-width="1.05217" transform="matrix(.85264 -.522499 -.0495471 .998772 1606.25 461.808)"/><circle fill="#248aff" r="13.6602" transform="matrix(.85264 -.522499 -.0495471 .998772 1606.25 461.808)"/><g mask="url(#aX)"><g filter="url(#g)" opacity=".5"><path clip-rule="evenodd" d="m1618.16 455.422c.03-.336.06-.669.08-.998.41-7.566-4.49-10.468-10.93-6.482s-12 13.351-12.4 20.917c-.02.379-.03.747-.03 1.103.82-7.373 6.16-16.105 12.33-19.918 6.12-3.786 10.84-1.358 10.95 5.378z" fill="#0572ec" fill-rule="evenodd"/></g></g><g filter="url(#h)" opacity=".8"><path clip-rule="evenodd" d="m1600.78 470.237c-.71-.522-.05-1.733-.05-1.733s.78-1.256 1.56-.889c.79.367 2.26 1.058 2.73.77s1.72-2.844 1.72-2.844 4.99-9.951 5.63-11.082 1.36-2.068 1.78-2.022c.43.046.67.439-.1 2.142-.78 1.703-6.91 14.549-7.81 16.249-.91 1.701-1.89 1.766-2.31 1.413-.42-.352-2.44-1.483-3.15-2.004z" fill="#0572ec" fill-rule="evenodd"/></g><path clip-rule="evenodd" d="m1600.59 468.044c-.71-.522-.05-1.733-.05-1.733s.78-1.256 1.56-.889c.79.367 2.26 1.058 2.74.77.47-.288 1.72-2.844 1.72-2.844s4.98-9.951 5.62-11.082 1.36-2.068 1.79-2.022c.42.046.67.439-.11 2.142s-6.9 14.549-7.81 16.25c-.91 1.7-1.89 1.765-2.31 1.412-.42-.352-2.43-1.483-3.15-2.004z" fill="#66cbff" fill-rule="evenodd"/><path d="m1372.67 308.641c0-5.672 4.17-12.794 9.18-15.689l39.45-22.778c4.89-2.818 8.69-.536 8.51 5.098l-1.52 45.868c-.18 5.657-4.32 12.536-9.22 15.333l-37.94 21.658c-4.73 2.7-8.46.61-8.46-4.742z" fill="#eb7100"/><path d="m1427.02 269.368 15.76 6.784-2.77 6.625-20.98-1.334z" fill="#eb7100"/><path d="m1375.43 351.248 16.01 3.313-.54 11.841-15.71-7.619z" fill="#eb7100"/><path d="m0 0h76.3922v76.3922h-76.3922z" fill="#000" fill-opacity=".01" transform="matrix(.866025 -.5 -.0329807 .999456 1387.68 303.759)"/><g clip-path="url(#aS)"><rect fill="#ffaa05" height="66.1934" rx="11.0322" transform="matrix(.866025 -.5 -.0329807 .999456 1389.52 304.861)" width="66.1934"/><path d="m0 0h8.82578v66.1934h-8.82578z" fill="#cc4e00" transform="matrix(.866025 -.5 -.0329807 .999456 1414.36 290.519)"/><path d="m0 0h8.82578v66.1934h-8.82578z" fill="#cc4e00" transform="matrix(.0329807 -.999456 .866025 -.5 1388.28 342.35)"/><g filter="url(#i)" opacity=".3"><path clip-rule="evenodd" d="m1412.97 322.323c-.82-.519-8.09-4.926-13.89-1.733-.41.229-.82.498-1.22.81-4.94 3.857-6.87 20.668-3.53 26.165.03.159.06.32.09.482 1.68 7.572 7.3.616 11.99-5.194.21-.27.43-.538.64-.802 2.83-3.426 4.86-7.086 5.82-8.946.33.094.76.02 1.23-.249l5.34-3.083c.46-.267.89-.687 1.25-1.179.87.812 2.74 2.22 5.44 2.45.2.022.41.045.61.069 4.48.515 9.85 1.133 12.1-8.71.05-.215.09-.422.13-.622 3.83-9.636 2.96-24.816-1.91-23.016-.41.151-.83.365-1.27.632-5.79 3.546-13.57 16.56-14.48 18.104-.37-.225-.89-.195-1.47.143l-5.34 3.083c-.59.34-1.13.926-1.53 1.596z" fill="#cc4e00" fill-rule="evenodd"/></g><path clip-rule="evenodd" d="m1414.58 317.46s-8.89-5.889-15.18-.977c-6.28 4.912-7.69 30.827.44 27.64 8.99-3.528 15.17-17.17 15.17-17.17z" fill="#eb7100" fill-rule="evenodd"/><g mask="url(#aY)"><g filter="url(#j)" opacity=".5"><path d="m1400.72 336.121.78-23.599 6.86-3.959-.78 23.599z" fill="#ffaa05"/></g><g clip-rule="evenodd" fill-rule="evenodd"><path d="m1415.01 326.953s-21.63 4.562-19.05 16.182c1.77 7.966 7.89-.146 12.71-6.088 3.77-4.653 6.34-10.094 6.34-10.094z" fill="#a32751"/><path d="m1396.02 343.06c-2.58-11.619 19.05-16.182 19.05-16.182s-.15.311-.42.847c-5.87 2.029-18.69 7.555-16.69 16.563.19.855.4 1.547.64 2.093-1.15-.003-2.06-.949-2.58-3.321z" fill="#051627" opacity=".1"/></g></g><path clip-rule="evenodd" d="m1419.94 314.428s9.65-16.573 15.86-18.874c6.2-2.301 5.93 22.907-2.31 29.165-9.12 6.929-14.63.056-14.63.056z" fill="#eb7100" fill-rule="evenodd"/><g mask="url(#aZ)"><g filter="url(#k)" opacity=".5"><path d="m1433.15 317.527.77-23.155-6.69 3.861-.76 23.155z" fill="#ffaa05"/></g><g clip-rule="evenodd" fill-rule="evenodd"><path d="m1418.85 324.944s22.1-20.786 18.65-5.517c-2.37 10.467-8.17 9.177-12.76 8.627-3.59-.431-5.89-3.11-5.89-3.11z" fill="#a32751"/><path d="m1437.52 318.777c3.42-14.142-18.66 5.962-18.66 5.962s.2.208.58.504c6.07-4.77 17.64-12.74 15.13-1.942-.2.835-.4 1.587-.61 2.266 1.48-1.277 2.73-3.377 3.56-6.79z" fill="#051627" opacity=".1"/></g></g><path clip-rule="evenodd" d="m1419.05 325.671-4.27 2.466c-.94.538-1.66-.016-1.62-1.237l.22-6.605c.04-1.221.83-2.646 1.76-3.184l4.27-2.466c.93-.538 1.65.016 1.61 1.237l-.21 6.605c-.04 1.221-.83 2.646-1.76 3.184z" fill="#ffaa05" fill-rule="evenodd"/><rect height="65.0901" rx="10.4806" stroke="#000" stroke-opacity=".04" stroke-width="1.10322" transform="matrix(.866025 -.5 -.0329807 .999456 1389.59 305.091)" width="65.0901" x=".459517" y=".275506"/></g><path clip-rule="evenodd" d="m1154.89 152.695c-.23-5.653 3.26-12.583 7.8-15.479l37.76-24.078c2.18-1.389 4.2-1.598 5.74-.815l9.9 3.98-.36 20.27-5.9-.543 1.24 30.209c.23 5.653-3.26 12.584-7.81 15.48l-19.62 12.512-12.49 17.199-10.69-4.544c-2.06-.607-3.46-2.752-3.6-6.082z" fill="#034ea6" fill-rule="evenodd"/><path d="m0 0h76.3935v76.3935h-76.3935z" fill="#000" fill-opacity=".01" transform="matrix(.809017 -.587785 .0413525 .999145 1163.83 149.435)"/><rect fill="url(#al)" height="66.1945" rx="11.0324" transform="matrix(.809017 -.587785 .0413525 .999145 1165.71 150.343)" width="66.1945"/><g filter="url(#l)"><path d="m1166.8 176.798 53.56-38.908 1.23 29.691c.22 5.518-3.21 12.623-7.68 15.869l-37.37 27.153c-4.47 3.246-8.28 1.404-8.51-4.114z" fill="#ffd480"/></g><path d="m1170.04 166.125c-.09-2.207 1.28-5.049 3.07-6.348l14.06-10.212c1.78-1.299 3.31-.562 3.4 1.645l.33 8.129-20.52 14.915z" fill="url(#an)"/><path d="m1195.92 147.319c-.09-2.207 1.29-5.049 3.07-6.347l14.06-10.213c1.79-1.298 3.31-.562 3.4 1.646l.34 8.128-20.53 14.915z" fill="url(#ao)"/><path d="m0 0h66.1945v2.20648h-66.1945z" fill="#ffd480" opacity=".5" transform="matrix(.809017 -.587785 .0413525 .999145 1166.8 176.798)"/><path d="m1186.01 174.253-6.8 13.455 7.48 3.079" stroke="#eb7100" stroke-linecap="round" stroke-linejoin="round" stroke-width="3.30973"/><path d="m1202.07 162.58 7.48 3.08-6.79 13.455" stroke="#eb7100" stroke-linecap="round" stroke-linejoin="round" stroke-width="3.30973"/><path d="m1192.09 187.999 3.64-23.084" stroke="#eb7100" stroke-linecap="round" stroke-linejoin="round" stroke-width="3.30973"/><rect height="65.0913" rx="10.4808" stroke="#000" stroke-opacity=".05" stroke-width="1.10324" transform="matrix(.809017 -.587785 .0413525 .999145 1165.79 150.619)" width="65.0913" x=".469082" y=".226914"/><path clip-rule="evenodd" d="m832.797 100.278c-5.512 3.175-10.338 11.073-10.778 17.641l.954 50.828c-.214 3.19.646 5.48 2.219 6.627l12.808 10.438-.09-.531c1.618.733 3.783.489 6.222-.916l39.921-22.997c5.512-3.175 10.338-11.074 10.779-17.642l3.193-47.5697c.147-2.1997-.216-3.9711-.971-5.2352l1.577-1.2451-16.078-9.4872c-1.733-1.2096-4.23-1.1538-6.844.3209z" fill="#ca7e20" fill-rule="evenodd"/><g mask="url(#a0)"><path d="m893.289 164.792c5.766-2.75 10.354-10.158 10.248-16.545l-.861-51.9495c-.106-6.3875-4.866-9.336-10.632-6.5858l-46.895 22.3673c-5.766 2.751-10.355 10.158-10.249 16.546l.862 51.949c.105 6.388 4.866 9.336 10.632 6.586z" fill="#ffd480"/><g filter="url(#m)"><g mask="url(#a1)"><path d="m847.75 160.937 16.072-26.217c.399-.652 1.065-.972 1.482-.713l8.933 5.533c.415.258.428.99.027 1.636l-6.456 10.424c-.192.31-.455.559-.732.691l-4.658 2.222c-.277.132-.54.38-.733.69l-4.356 7.033c-.192.31-.297.657-.292.964l.06 3.62c.011.639-.448 1.38-1.025 1.655l-7.389 3.525c-.577.275-1.053-.02-1.064-.659l-.156-9.449c-.005-.303.098-.647.287-.955z" fill="#848c93"/></g><path clip-rule="evenodd" d="m867.261 138.604c-6.018-3.209-6.181-12.99-.362-21.845s15.415-13.433 21.434-10.223c6.019 3.209 6.181 12.989.362 21.845-5.819 8.855-15.415 13.432-21.434 10.223zm10.479-19.426c-.031-1.873 1.434-4.102 3.272-4.978 1.837-.877 3.352-.069 3.384 1.804.031 1.873-1.434 4.102-3.272 4.979-1.838.876-3.353.068-3.384-1.805z" fill="#848c93" fill-rule="evenodd"/></g><rect height="73.7412" rx="10.9889" stroke="#000" stroke-opacity=".07" stroke-width="1.15672" transform="matrix(-.0165799 -.999863 -.902585 .430511 902.802 159.003)" width="73.7412" x="-.53161" y="-.329291"/></g><rect fill="#0572ec" height="75.6728" rx="12.8844" transform="matrix(.855517 -.606341 -.0908064 .995869 1207.9 667.603)" width="75.6728"/><path d="m1268.87 627.709 13.84 5.825-7.55 13.993-8.56-12.853z" fill="#0572ec"/><path d="m1205.24 729.569h15.81l-3.12 14.114-13.44-6.926z" fill="#0572ec"/><g mask="url(#a2)"><path d="m0 0h75.6728v75.6728h-75.6728z" fill="#e6e6e8" transform="matrix(.855517 -.606341 -.0908064 .995869 1221.85 674.086)"/><path d="m1217.15 725.582 64.74-45.884-2.17 23.865-64.74 45.883z" fill="url(#aq)"/><g filter="url(#n)"><path clip-rule="evenodd" d="m1250.21 695.104c2.09-1.478 3.96-4.645 4.18-7.073s-1.29-3.197-3.38-1.719c-2.08 1.478-3.95 4.645-4.17 7.072-.23 2.428 1.29 3.198 3.37 1.72z" fill="#248aff" fill-rule="evenodd"/></g><g filter="url(#o)"><path clip-rule="evenodd" d="m1252.02 675.028c4.87-3.455 8.82-3.145 10.6.19l-4.56 6.098c-1.09-2.109-3.56-2.319-6.6-.16-3.01 2.13-5.82 6.024-7.49 10.031l-4-.031c2.69-6.444 7.21-12.702 12.05-16.128z" fill="#248aff" fill-rule="evenodd"/></g><g filter="url(#p)"><path clip-rule="evenodd" d="m1253.04 663.727c8.57-6.071 15.55-5.99 18.78-.819l-4.76 6.159c-2.5-4.028-7.91-4.102-14.56.61-6.6 4.678-12.74 12.884-16.37 21.187l-4.22.207c4.69-10.717 12.61-21.306 21.13-27.344z" fill="#248aff" fill-rule="evenodd"/></g><path d="m0 0h75.6728v2.52243h-75.6728z" fill="#f8f8f9" opacity=".6" transform="matrix(.855517 -.606341 -.0908064 .995869 1217.38 723.07)"/><path d="m0 0h8.82849v7.56728h-8.82849z" fill="#656e76" transform="matrix(.855517 -.606341 -.0908064 .995869 1227.26 725.471)"/><path d="m0 0h8.82849v3.78364h-8.82849z" fill="#35414c" transform="matrix(.855517 -.606341 -.0908064 .995869 1227.26 725.471)"/><path clip-rule="evenodd" d="m1215.44 744.422-.46 5.024 64.74-45.883.46-5.024z" fill="#656e76" fill-rule="evenodd"/><rect height="74.5096" rx="11.074" stroke="#000" stroke-opacity=".05" stroke-width="1.16569" transform="matrix(.855517 -.606341 -.0908064 .995869 1221.93 674.408)" width="74.5096" x=".445707" y=".227034"/></g><path clip-rule="evenodd" d="m1030.56 530.936c-5.1 3.43-9.61 11.202-10.07 17.359l-2.24 44.523c-.23 3.181.66 5.309 2.28 6.149l10.08 7.137c1.5 1.537 4.03 1.47 7.04-.546l36.98-24.844c5.1-3.431 9.61-11.203 10.07-17.36l3.3-44.595c.23-3.003-.56-5.067-2.01-5.996l.05-.048-12.16-7.735v.006c-1.53-.919-3.76-.622-6.33 1.106z" fill="#eb7100" fill-rule="evenodd"/><path d="m0 0h70.6669v70.6669h-70.6669z" fill="#000" fill-opacity=".01" transform="matrix(.83147 -.55557 -.0742825 .997237 1032.3 544.841)"/><g clip-path="url(#aT)"><g mask="url(#a3)"><g filter="url(#q)"><rect fill="url(#as)" height="61.2383" rx="10.2064" transform="matrix(.83147 -.55557 -.0742825 .997237 1033.85 545.742)" width="61.2383"/></g><g filter="url(#r)"><rect fill="url(#at)" height="55.1144" rx="7.14446" transform="matrix(.83147 -.55557 -.0742825 .997237 1036.16 547.095)" width="55.1144"/></g><rect height="53.0732" opacity=".3" rx="6.12383" stroke="#fab6d7" stroke-width="2.04128" transform="matrix(.83147 -.55557 -.0742825 .997237 1036.33 547.525)" width="53.0732" x=".772814" y=".450782"/><rect height="54.0938" rx="6.63414" stroke="#eb7100" stroke-width="1.02064" transform="matrix(.83147 -.55557 -.0742825 .997237 1036.25 547.31)" width="54.0938" x=".386407" y=".225391"/><rect height="59.197" rx="9.18574" stroke="#000" stroke-opacity=".07" stroke-width="2.04128" transform="matrix(.83147 -.55557 -.0742825 .997237 1034.01 546.173)" width="59.197" x=".772814" y=".450782"/></g><path d="m1038.38 560.827 39.01-26.059-.36 4.709c-.04.563-.45 1.272-.92 1.585l-37.3 24.926c-.47.313-.82.111-.78-.451z" fill="url(#au)"/><g filter="url(#s)" opacity=".15"><rect fill="#000" height="32.547" rx="3.06191" transform="matrix(.83147 -.55557 -.0742825 .997237 1044.28 557.793)" width="31.5897"/></g><g mask="url(#a4)"><rect fill="#f8f8f9" height="31.5897" rx="3.06191" transform="matrix(.0742825 -.997237 .83147 -.55557 1042.08 587.386)" width="44.0341"/><g mask="url(#a5)"><path d="m1055 560.391c-.99-.768-.82-3.025.4-5.27l17.15-31.639-3.55 47.731z" fill="#b9bdc2" opacity=".6"/><path d="m1055.76 559.866c-.97-.774-.81-3.007.39-5.235l15.47-28.708-3.28 43.913z" fill="#f8f8f9"/><g filter="url(#t)"><path d="m1057.93 553.444c.98.774.81 3.007-.39 5.235l-15.46 28.707 3.27-43.912z" fill="#fff"/></g><path d="m0 0h31.8519v7.73285h-31.8519z" fill="url(#av)" transform="matrix(.83147 -.55557 -.0742825 .997237 1044.32 555.674)"/></g></g><path d="m1077.39 534.768-39.01 26.059 2.94-8.311 34.13-22.802z" fill="url(#aw)"/></g><path clip-rule="evenodd" d="m793.7 388.642c.392-6.858 5.237-15.799 10.822-19.972l43.528-27.366c2.795-2.088 5.246-2.586 6.948-1.703l16.904 6.964-15.319 14.866-1.964 34.404c-.391 6.858-5.237 15.8-10.822 19.972l-32.834 25.132 1.085 15.3-14.495-8.679c-1.686-.889-2.63-3.142-2.435-6.554z" fill="#0572ec" fill-rule="evenodd"/><path d="m0 0h90.9536v90.9536h-90.9536z" fill="#000" fill-opacity=".01" transform="matrix(.838671 -.544639 0 1 806.993 382.412)"/><g clip-path="url(#aU)"><rect fill="url(#ax)" height="78.8108" rx="13.1351" transform="matrix(.838671 -.544639 0 1 809.196 383.608)" width="78.8108"/><rect height="77.4973" rx="12.4784" stroke="#000" stroke-opacity=".05" stroke-width="1.31351" transform="matrix(.838671 -.544639 0 1 809.285 383.908)" width="77.4973" x=".550802" y=".299061"/><rect fill="#e1f5ff" height="64.3621" rx="10.5081" transform="matrix(.838671 -.544639 0 1 815.255 386.92)" width="64.3621"/><g mask="url(#a6)"><path clip-rule="evenodd" d="m816.357 434.782v5.254c0 5.804 3.945 7.946 8.812 4.785l34.15-22.177c4.867-3.161 8.813-10.428 8.813-16.231v-5.254c0 5.803-3.946 13.07-8.813 16.231l-34.15 22.177c-4.867 3.161-8.812 1.019-8.812-4.785z" fill="#034ea6" fill-rule="evenodd" opacity=".2"/></g><g filter="url(#u)" opacity=".2"><rect height="66.9892" rx="11.8216" stroke="#c3fcff" stroke-width="2.62703" transform="matrix(.838671 -.544639 0 1 815.077 386.297)" width="66.9892" x="-1.1016" y="-.598122"/></g><rect height="63.0486" opacity=".8" rx="9.85135" stroke="#034ea6" stroke-width="1.31351" transform="matrix(.838671 -.544639 0 1 815.344 387.197)" width="63.0486" x=".550802" y=".299061"/><circle fill="url(#az)" opacity=".8" r="22.3297" transform="matrix(.838671 -.544639 0 1 842.244 401.551)"/><path d="m845.067 401.03c0-.459.206-1.011.51-1.489 1.322-2.077 2.175-4.555 2.175-6.721 0-3.682-2.466-5.066-5.508-3.09-3.042 1.975-5.508 6.562-5.508 10.244 0 2.166.854 3.536 2.175 3.895.305.083.511.367.511.826v7.884c0 .725.494.993 1.102.598l3.441-2.235c.608-.395 1.102-1.303 1.102-2.029z" fill="url(#aA)"/></g><path d="m472.13 644.817c-.27-6.333 3.887-14.398 9.337-18.113l30.976-21.116c5.517-3.761 10.276-1.648 10.622 4.715l3.088 56.885c.359 6.629-4.201 15.176-9.961 18.668l-31.711 19.227c-5.334 3.233-9.734.914-9.998-5.271z" fill="#eb7100"/><path d="m529.775 605.688-10.983-1.81 5.304 6.447z" fill="#eb7100"/><path d="m487.967 710.035-9.589-3.742-.11-10.342 11.043.552z" fill="#eb7100"/><g mask="url(#a7)"><path d="m0 0h60.4591v80.6121h-60.4591z" fill="#ffe8bb" transform="matrix(.857566 -.567501 .041264 .99644 481.558 634.959)"/><path d="m484.315 703.774 51.938-34.37.478 11.542-51.938 34.37z" fill="url(#aC)" opacity=".2"/><path clip-rule="evenodd" d="m490.199 629.213 34.565-22.874c4.772-3.158 8.827-1.223 9.057 4.322l.416 10.041-51.848 34.311-.416-10.041c-.229-5.545 3.453-12.601 8.226-15.759z" fill="#ffaa05" fill-rule="evenodd"/><g opacity=".4" stroke="#ffaa05" stroke-width="1.16416"><path d="m482.659 666.883 51.847-34.31"/><path d="m483.127 678.179 51.826-34.296"/><path d="m483.595 689.469 51.847-34.31"/><path d="m484.062 700.768 51.826-34.296"/></g><path d="m482.089 656.246 52.418-34.688" stroke="#f09500" stroke-width="2.34109"/><rect height="79.4479" rx="11.0596" stroke="#000" stroke-opacity=".05" stroke-width="1.16416" transform="matrix(.857566 -.567501 .041264 .99644 481.622 635.229)" width="59.2949" x=".523193" y=".249678"/><path d="m493.154 650.105 2.531 58.003" stroke="#d3376c" stroke-width="1.74625"/></g><rect fill="url(#aD)" height="159.581" rx="24.5823" transform="matrix(.99333462 .11526639 -.11526639 .99333462 -1.600451 -34.158947)" width="159.581" x="294.56" y="-30.918"/><g filter="url(#v)"><path d="m287.202 32.4889 158.517 18.3942-8.203 70.6919c-1.565 13.486-13.766 23.15-27.252 21.585l-109.68-12.727c-13.486-1.565-23.15-13.766-21.585-27.252z" fill="#ffaa05"/></g><path d="m299.996 14.5398c.625-5.3944 5.506-9.25996 10.9-8.63399l41.23 4.78429c5.395.626 9.26 5.5065 8.634 10.9008l-2.239 19.2941-60.764-7.0512z" fill="url(#aF)"/><path d="m376.612 23.4302c.626-5.3944 5.506-9.2599 10.901-8.634l41.23 4.7844c5.394.6259 9.26 5.5064 8.634 10.9008l-2.239 19.294-60.765-7.0511z" fill="url(#aG)"/><path d="m287.202 32.4889h159.581v5.31935h-159.581z" fill="#c3fcff" opacity=".5" transform="matrix(.99333462 .11526639 -.11526639 .99333462 5.65919 -32.888186)"/><path d="m339.604 65.4649-23.434 17.362 18.836 22.2671" stroke="#034ea6" stroke-linecap="round" stroke-linejoin="round" stroke-width="7.3747"/><path d="m387.159 70.9831 18.836 22.2672-23.434 17.3617" stroke="#034ea6" stroke-linecap="round" stroke-linejoin="round" stroke-width="7.3747"/><path d="m350.551 109.575 18.728-46.0218" stroke="#034ea6" stroke-linecap="round" stroke-linejoin="round" stroke-width="7.3747"/><rect height="157.122" rx="23.3532" stroke="#000" stroke-opacity=".05" stroke-width="2.45823" transform="matrix(.99333462 .11526639 -.11526639 .99333462 -1.436197 -34.274237)" width="157.122" x="295.639" y="-29.5554"/><rect fill="#eb7100" height="145.723" rx="20.4128" transform="matrix(1 0 -.424357 .905495 378.841 76.0173)" width="109.292"/><path d="m479.097 80.7905 15.56 17.6119-2.075 20.6816-22.086-20.9813z" fill="#eb7100"/><g mask="url(#a8)"><path d="m0 0h109.292v145.723h-109.292z" fill="#ffe8bb" transform="matrix(1 0 -.424357 .905495 395.636 94.4203)"/><path d="m342.515 207.367h109.482l-8.885 18.959h-109.483z" fill="url(#aH)" opacity=".2"/><path clip-rule="evenodd" d="m413.874 94.3746h72.861c10.06 0 14.755 7.3844 10.486 16.4944l-7.73 16.494h-109.292l7.729-16.494c4.269-9.11 15.886-16.4944 25.946-16.4944z" fill="#ffaa05" fill-rule="evenodd"/><g opacity=".4" stroke="#ffaa05" stroke-width="2.10447"><path d="m371.014 146.957h109.293"/><path d="m362.318 165.512h109.246"/><path d="m353.627 184.06h109.292"/><path d="m344.929 202.619h109.245"/></g><path d="m380.198 127.362h109.293" stroke="#f09500" stroke-width="4.20894"/><rect height="143.619" rx="19.9925" stroke="#000" stroke-opacity=".05" stroke-width="2.10447" transform="matrix(1 0 -.424357 .905495 396.063 94.4646)" width="107.188" x=".605712" y=".952794"/><path d="m402.001 129.424-45.413 96.902" stroke="#d3376c" stroke-width="3.15671"/></g><path clip-rule="evenodd" d="m104.775 53.964-16.7659 8.6342.0024.0209c-4.7485 2.4471-8.479 6.8228-9.9416 12.3967l-22.2463 84.7822c-2.7354 10.425 3.498 21.093 13.9226 23.828l84.7818 22.247c10.425 2.735 21.093-3.498 23.829-13.923l22.246-84.782c2.735-10.4249-3.498-21.0931-13.923-23.8285l-82.392-21.6191z" fill="#0572ec" fill-rule="evenodd"/><rect fill="url(#aI)" height="126.681" rx="19.5144" transform="matrix(.96725624 .25380184 -.25380184 .96725624 15.233055 -23.988303)" width="126.681" x="100.585" y="47.0427"/><rect height="124.73" rx="18.5387" stroke="#000" stroke-opacity=".1" stroke-width="1.95144" transform="matrix(.96725624 .25380184 -.25380184 .96725624 15.558224 -24.125938)" width="124.73" x="101.281" y="48.2341"/><path d="m148.368 83.756c5.277-2.9668 11.955-1.2144 15.095 3.9609 1.796 2.9594 4.857 4.9247 8.295 5.3256 6.013.7012 10.386 6.0446 9.884 12.0775-.287 3.449 1.034 6.838 3.58 9.184 4.452 4.101 4.85 10.994.898 15.58-2.26 2.622-3.183 6.14-2.502 9.534 1.191 5.935-2.539 11.746-8.432 13.133-3.369.793-6.184 3.097-7.628 6.243-2.525 5.501-8.958 8.009-14.54 5.668-3.192-1.339-6.824-1.13-9.841.567-5.276 2.967-11.955 1.214-15.095-3.961-1.796-2.959-4.856-4.925-8.295-5.326-6.012-.701-10.385-6.044-9.884-12.077.287-3.449-1.034-6.838-3.58-9.184-4.452-4.101-4.849-10.994-.898-15.58 2.26-2.622 3.183-6.141 2.502-9.534-1.191-5.935 2.54-11.7456 8.432-13.1327 3.369-.7932 6.184-3.0969 7.628-6.243 2.525-5.5017 8.958-8.0095 14.54-5.6683 3.193 1.3388 6.824 1.1296 9.841-.567z" fill="#66cbff"/><circle cx="144.998" cy="123.741" r="32.8318" stroke="url(#aJ)" stroke-width="1.95144" transform="matrix(.96725624 .25380184 -.25380184 .96725624 36.153473 -32.749013)"/><circle cx="144.999" cy="123.741" fill="#248aff" r="27.4115" transform="matrix(.96725624 .25380184 -.25380184 .96725624 36.153506 -32.749267)"/><g mask="url(#a9)"><g filter="url(#w)" opacity=".5"><path clip-rule="evenodd" d="m171.732 132.706c.212-.614.404-1.241.575-1.878 3.925-14.642-4.796-29.568-19.478-33.3397-14.683-3.7712-29.767 5.0417-33.691 19.6837-.198.735-.363 1.471-.497 2.206 4.662-13.507 19.073-21.4125 33.116-17.805 13.945 3.581 22.512 17.227 19.975 31.133z" fill="#0572ec" fill-rule="evenodd"/></g></g><g filter="url(#x)" opacity=".8"><path clip-rule="evenodd" d="m130.479 130.813c-1.23-2.375.598-3.628.598-3.628s2.09-1.121 3.532 1.076c1.442 2.196 4.146 6.323 5.218 6.605 1.072.283 4.651-2.612 4.651-2.612s14.168-11.058 15.926-12.18 3.6-1.703 4.446-.821 1.176 2.128-1.092 4.163c-2.268 2.034-19.938 16.874-22.476 18.658s-4.538.119-5.248-1.377c-.711-1.496-4.326-7.508-5.555-9.884z" fill="#0572ec" fill-rule="evenodd"/></g><path clip-rule="evenodd" d="m130.996 126.005c-1.229-2.375.599-3.628.599-3.628s2.09-1.121 3.532 1.076c1.442 2.196 4.146 6.323 5.217 6.606 1.072.282 4.652-2.613 4.652-2.613s14.168-11.058 15.926-12.18 3.6-1.702 4.446-.821c.846.882 1.175 2.128-1.093 4.163-2.268 2.034-19.937 16.874-22.475 18.658-2.539 1.784-4.538.119-5.249-1.377-.71-1.496-4.325-7.508-5.555-9.884z" fill="#66cbff" fill-rule="evenodd"/><path clip-rule="evenodd" d="m223.544 128.324-.959 1.026-17.114-9.714 15.994-11.355c2.303-4.198 6.991-6.865 13.253-6.865h90.599c11.274 0 23.381 8.644 27.042 19.306l29.421 85.689c3.662 10.663-2.51 19.307-13.783 19.307h-90.6c-11.273 0-23.38-8.644-27.041-19.307z" fill="#4c6ce8" fill-rule="evenodd"/><g mask="url(#ba)"><path d="m0 0h131.425v131.425h-131.425z" fill="url(#aK)" transform="matrix(1 0 .316808 .94849 193.324 116.876)"/><g filter="url(#y)" opacity=".3"><path d="m0 0h140.187v10.9521h-140.187z" fill="#656e76" transform="matrix(1 0 .316808 .94849 200.739 152.195)"/></g><g fill="#034ea6"><circle r="6.57125" transform="matrix(1 0 .316808 .94849 317.026 224.91)"/><circle r="6.57125" transform="matrix(1 0 .316808 .94849 303.147 183.358)"/><circle r="6.57125" transform="matrix(1 0 .316808 .94849 287.88 137.651)"/></g><circle fill="#248aff" r="6.57125" transform="matrix(1 0 .316808 .94849 295.121 224.91)"/><circle fill="#248aff" r="6.57125" transform="matrix(1 0 .316808 .94849 281.242 183.358)"/><circle fill="#248aff" r="6.57125" transform="matrix(1 0 .316808 .94849 265.976 137.651)"/><circle fill="#f1faff" r="6.57125" transform="matrix(1 0 .316808 .94849 273.218 224.91)"/><circle fill="#f1faff" r="6.57125" transform="matrix(1 0 .316808 .94849 259.338 183.358)"/><circle fill="#f1faff" r="6.57125" transform="matrix(1 0 .316808 .94849 244.071 137.651)"/><g filter="url(#z)" opacity=".3"><path d="m0 0h140.187v8.76166h-140.187z" fill="#656e76" transform="matrix(1 0 .316808 .94849 216.007 197.902)"/></g><path clip-rule="evenodd" d="m344.397 162.583h-140.187l-.694-2.078h140.187z" fill="#656e76" fill-rule="evenodd"/><path clip-rule="evenodd" d="m358.97 206.212h-140.187l-.694-2.078h140.187z" fill="#656e76" fill-rule="evenodd"/><rect height="129.4" rx="19.2329" stroke="#000" stroke-opacity=".06" stroke-width="2.02451" transform="matrix(1 0 .316808 .94849 193.019 116.925)" width="129.4" x="1.33295" y=".960115"/></g><g mask="url(#bb)"><path d="m340.479 161.047h131.425v131.425h-131.425z" fill="#e6e6e8" transform="matrix(.9551053 .29626654 -.29626654 .9551053 62.998539 -93.642378)"/><path d="m313.872 246.822 125.525 38.936-12.33 39.75-125.525-38.937z" fill="url(#aL)"/><g filter="url(#A)"><path clip-rule="evenodd" d="m380.527 253.737c4.045 1.255 8.34-1.006 9.595-5.051 1.254-4.043-1.007-8.339-5.052-9.593-4.043-1.254-8.339 1.007-9.593 5.05-1.254 4.045 1.007 8.34 5.05 9.594z" fill="#248aff" fill-rule="evenodd"/></g><g filter="url(#B)"><path clip-rule="evenodd" d="m390.858 220.248c9.452 2.932 15.974 11.02 17.763 20.554l-9.882 2.531c-1.078-5.969-5.14-11.045-11.048-12.878-5.828-1.807-11.965.004-16.226 4.196l-6.715-7.679c6.864-6.728 16.734-9.632 26.108-6.724z" fill="#248aff" fill-rule="evenodd"/></g><g filter="url(#C)"><path clip-rule="evenodd" d="m396.689 201.416c16.61 5.152 28.32 18.604 31.868 34.265l-10.243 2.257c-2.73-12.161-11.809-22.613-24.7-26.612-12.798-3.97-26.1-.569-35.227 7.781l-7.169-7.657c11.785-10.773 28.952-15.158 45.471-10.034z" fill="#248aff" fill-rule="evenodd"/></g><path d="m315.17 242.638h131.425v4.38083h-131.425z" fill="#f8f8f9" opacity=".6" transform="matrix(.9551053 .29626654 -.29626654 .9551053 86.034982 -82.481165)"/><path d="m330.899 265.864h15.3329v13.1425h-15.3329z" fill="#656e76" transform="matrix(.9551053 .29626654 -.29626654 .9551053 93.622217 -86.098417)"/><path d="m330.899 265.864h15.3329v6.57125h-15.3329z" fill="#35414c" transform="matrix(.9551053 .29626654 -.29626654 .9551053 93.622217 -86.098417)"/><path clip-rule="evenodd" d="m304.138 278.203-2.595 8.368 125.524 38.937 2.596-8.368z" fill="#656e76" fill-rule="evenodd"/><rect height="129.405" rx="19.2329" stroke="#000" stroke-opacity=".05" stroke-width="2.02451" transform="matrix(.9551053 .29626654 -.29626654 .9551053 63.426845 -93.770833)" width="129.405" x="341.117" y="162.396"/></g><rect fill="#eb7100" height="122.713" rx="19.7781" transform="matrix(.9937511 .11161879 -.11161879 .9937511 20.017929 -11.455178)" width="122.713" x="112.316" y="173.054"/><path d="m121.388 177.017 18.429-8.403-4.796 15.878-16.609 9.255z" fill="#eb7100"/><rect fill="#ffaa05" height="128.393" rx="19.7781" transform="matrix(.9937511 .11161879 -.11161879 .9937511 19.222443 -13.434083)" width="128.393" x="129.592" y="164.96"/><path d="m184.882 171.17h17.1191v128.393h-17.1191z" fill="#cc4e00" transform="matrix(.9937511 .11161879 -.11161879 .9937511 20.261097 -19.56668)"/><path d="m121.471 237.262h17.1191v128.393h-17.1191z" fill="#cc4e00" transform="matrix(.11161809 -.99375118 .99375118 .11161809 -127.866753 331.491217)"/><g filter="url(#D)" opacity=".3"><path clip-rule="evenodd" d="m177.256 232.028c-1.675-2.158-16.525-20.872-29.385-22.707-.96-.138-1.908-.182-2.84-.119-11.13.759-17.714 31.269-11.376 46.757.034.352.078.713.131 1.083 2.491 17.285 15.529 11.354 26.42 6.401v-.001c.504-.229 1.003-.456 1.496-.678 6.554-2.837 11.445-7.24 13.759-9.589.713.657 1.633 1.101 2.671 1.218l11.884 1.334c1.031.116 2.021-.109 2.858-.585 1.739 2.809 5.532 8.182 11.291 12.398.428.324.862.654 1.299.987 9.52 7.246 20.918 15.921 27.181-.381.137-.355.262-.704.374-1.045 9.604-13.705 9.948-44.891-.732-48.098-.859-.258-1.755-.422-2.681-.504-12.924-1.155-31.604 13.813-33.785 15.602-.754-.954-1.873-1.619-3.177-1.765l-11.885-1.335c-1.31-.147-2.555.257-3.503 1.027z" fill="#cc4e00" fill-rule="evenodd"/></g><path clip-rule="evenodd" d="m181.42 224.67s-18.189-23.991-32.361-23.025c-14.173.966-20.974 50.174-3.109 55.175 19.781 5.538 35.003-12.81 35.003-12.81z" fill="#eb7100" fill-rule="evenodd"/><g mask="url(#bc)"><g filter="url(#E)" opacity=".5"><path d="m149.012 242.249 5.112-45.513 15.262 1.714-5.113 45.514z" fill="#ffaa05"/></g><g clip-rule="evenodd" fill-rule="evenodd"><path d="m180.953 244.011s-46.98-21.053-43.158 5.471c2.62 18.183 16.913 10.675 28.098 5.64 8.758-3.944 15.06-11.111 15.06-11.111z" fill="#a32751"/><path d="m137.924 249.412c-3.822-26.525 43.159-5.472 43.159-5.472s-.36.41-1.027 1.086c-12.852-4.144-41.113-11.054-38.15 9.51.281 1.952.641 3.617 1.073 5.028-2.46-1.602-4.274-4.739-5.055-10.152z" fill="#051627" opacity=".1"/></g></g><path clip-rule="evenodd" d="m193.336 226.131s23.084-19.311 36.71-15.228c13.627 4.084 9.356 53.473-9.2 54.378-20.547 1.001-31.343-20.228-31.343-20.228z" fill="#eb7100" fill-rule="evenodd"/><g mask="url(#bd)"><g filter="url(#F)" opacity=".5"><path d="m221.178 250.614 5.016-44.657-14.886-1.672-5.016 44.657z" fill="#ffaa05"/></g><g clip-rule="evenodd" fill-rule="evenodd"><path d="m189.465 245.378s50.367-10.319 40.738 15.025c-6.601 17.375-18.823 6.773-28.574-.694-7.635-5.847-12.164-14.331-12.164-14.331z" fill="#a32751"/><path d="m230.344 259.15c9.385-23.17-40.834-14.166-40.834-14.166s.407.693 1.182 1.81c13.687-.987 39.621-.645 32.673 17.189-.537 1.377-1.082 2.581-1.635 3.626 3.356-.464 6.349-2.867 8.614-8.459z" fill="#051627" opacity=".1"/></g></g><path clip-rule="evenodd" d="m189.782 247.088-9.508-1.068c-2.073-.233-3.538-2.331-3.274-4.686l1.431-12.737c.264-2.355 2.159-4.075 4.231-3.842l9.508 1.068c2.073.232 3.537 2.33 3.273 4.685l-1.431 12.737c-.264 2.355-2.158 4.075-4.23 3.843z" fill="#ffaa05" fill-rule="evenodd"/><rect height="126.416" rx="18.7892" stroke="#000" stroke-opacity=".04" stroke-width="1.97781" transform="matrix(.9937511 .11161879 -.11161879 .9937511 19.349897 -13.524696)" width="126.416" x="130.465" y="166.053"/><g filter="url(#G)"><path d="m294.029 346.072c38.637-8.491 63.075-46.695 54.585-85.332-8.491-38.637-46.695-63.076-85.332-54.585-38.637 8.49-63.076 46.695-54.585 85.332 8.49 38.637 46.695 63.075 85.332 54.585z" fill="url(#aM)"/><path d="m313.761 341.735c38.637-8.49 63.076-46.695 54.585-85.332-8.49-38.637-46.695-63.075-85.332-54.585-38.637 8.491-63.075 46.695-54.585 85.332 8.491 38.637 46.695 63.076 85.332 54.585z" fill="url(#aN)"/><path d="m365.652 256.995c8.164 37.15-15.334 73.883-52.483 82.046-37.149 8.164-73.882-15.334-82.046-52.483-8.163-37.149 15.334-73.882 52.483-82.046 37.149-8.163 73.883 15.334 82.046 52.483z" stroke="url(#aO)" stroke-width="5.51689"/><path d="m310.431 326.578c30.265-6.651 49.409-36.578 42.758-66.844-6.651-30.265-36.578-49.409-66.843-42.758-30.266 6.651-49.41 36.578-42.759 66.843 6.651 30.266 36.578 49.41 66.844 42.759z" fill="#ffaa05"/><path d="m311.023 329.272c31.753-6.978 51.838-38.376 44.86-70.13-6.978-31.753-38.376-51.838-70.13-44.86-31.753 6.978-51.838 38.376-44.86 70.129 6.978 31.754 38.376 51.839 70.13 44.861z" opacity=".3" stroke="#fffaef" stroke-width="5.51689"/><path d="m311.023 329.272c31.753-6.978 51.838-38.376 44.86-70.13-6.978-31.753-38.376-51.838-70.13-44.86-31.753 6.978-51.838 38.376-44.86 70.129 6.978 31.754 38.376 51.839 70.13 44.861z" stroke="#ffe3ac" stroke-width="5.51689"/><path d="m352.111 259.971c6.52 29.671-12.247 59.009-41.918 65.529-29.67 6.52-59.009-12.247-65.529-41.917-6.52-29.671 12.247-59.009 41.918-65.529 29.67-6.52 59.009 12.247 65.529 41.917z" stroke="#f99904" stroke-width="2.20676"/><g filter="url(#H)" opacity=".3"><path clip-rule="evenodd" d="m245.888 288.203c-4.489-29.032 14.326-56.929 43.417-63.321 29.091-6.393 57.868 11.045 65.965 39.284-.182-1.172-.401-2.347-.659-3.522-6.651-30.266-36.578-49.409-66.844-42.758-30.265 6.651-49.409 36.577-42.758 66.843.258 1.175.552 2.333.879 3.474z" fill="#eb7100" fill-rule="evenodd"/></g><path clip-rule="evenodd" d="m289.937 257.94c-.66-3.004 1.898-5.042 5.338-5.798.861-.189 2.007-.441 3.196-.506 1.283-.085 1.727.113 2.303 1.364l2.33 5.588 14.576-2.514-3.692-16.802c-5.566-.252-8.96-.195-12.388.164l-1.567-7.134-18.446 4.054 1.754 7.978c-7.991 4.216-12.945 11.307-10.634 21.82 4.682 21.307 31.822 8.947 33.843 18.146.743 3.379-1.616 5.866-5.439 6.706-1.912.42-3.482.568-4.616.424-.806-.02-1.366-.291-1.709-1.396l-2.255-5.703-14.734 2.253 3.631 16.52c4.215.944 9.008.874 13.583.263l1.732 7.884 18.446-4.053-1.898-8.636c8.011-4.122 12.923-11.4 10.551-22.195-4.661-21.213-32.09-10.167-33.905-18.427z" fill="#ffe3ac" fill-rule="evenodd"/></g><g filter="url(#I)"><g fill="#0572ec"><rect height="140.144" rx="26.1753" transform="matrix(.931143 -.364653 .554935 .831894 110.503 13.038)" width="194.901"/><path d="m124.096 11.8804 14.013-18.6835 13.252 32.024h-27.607z"/><path d="m329.356 45.5929 34.781-10.8065-6.497 22.1238-26.689 10.5351z"/></g><g mask="url(#be)"><path d="m0 0h186.858v140.144h-186.858z" fill="#c2eaff" transform="matrix(.931143 -.364653 .554935 .831894 123.464 -6.47174)"/><rect height="137.445" rx="25.636" stroke="#000" stroke-opacity=".04" stroke-width="2.69852" transform="matrix(.931143 -.364653 .554935 .831894 123.252 -5.63459)" width="184.16" x="2.00511" y=".63043"/><path d="m0 0h186.858v32.2949h-186.858z" fill="#66cbff" opacity=".5" transform="matrix(.931143 -.364653 .554935 .831894 122.593 -7.70129)"/><path d="m279.744 47.9014c16.539-6.2073 29.863-29.0152 20.415-32.6639-9.449-3.6487-11.841 11.0711-6.223 19.4928 2.565 3.8452 8.602 7.3624 13.416.6641 2.596-3.6127 4.942-13.6883 4.942-13.6883s.959 9.7168 8.441 10.1425c7.459.4244 13.565-9.5639 14.792-13.4063" stroke="#02346e" stroke-linecap="round" stroke-linejoin="round" stroke-width="2.0118"/><path d="m141.287 20.2457 173.992-68.1384" stroke="#66cbff" stroke-linecap="round" stroke-width="5.39705"/><path d="m0 0h64.2325v64.2325h-64.2325z" fill="#f3fff6" transform="matrix(.931143 -.364653 .554935 .831894 165.699 26.0018)"/><path d="m207.02 72.5259c-5.789-8.6787-2.608-18.7981 7.106-22.6023l8.32-3.2583c9.714-3.8042 22.282.1473 28.072 8.826l2.479 3.7166-43.498 17.0346z" fill="#02346e"/><circle fill="#02346e" r="13.1385" transform="matrix(.931143 -.364653 .554935 .831894 209.376 34.9358)"/><path d="m268.375 10.2988 48.935-19.1639" stroke="#66cbff" stroke-linecap="round" stroke-width="4.04779"/></g><g filter="url(#J)" opacity=".5"><path d="m180.609-44.1679 43.537-16.9764 19.394 29.1653c7.14 10.7383 3.183 23.24378-8.84 27.93167-12.022 4.687898-27.557-.21697-34.697-10.95537z" fill="#0572ec"/></g></g></g></svg>